<?xml version="1.0" standalone="no"?>
<!DOCTYPE svg PUBLIC "-//W3C//DTD SVG 20010904//EN"
 "http://www.w3.org/TR/2001/REC-SVG-20010904/DTD/svg10.dtd">
<svg version="1.0" xmlns="http://www.w3.org/2000/svg"
 width="2448.000000pt" height="2448.000000pt" viewBox="0 0 2448.000000 2448.000000"
 preserveAspectRatio="xMidYMid meet">
<metadata>
Created by potrace 1.14, written by Peter Selinger 2001-2017
</metadata>
<g transform="translate(0.000000,2448.000000) scale(0.100000,-0.100000)"
fill="#000000" stroke="none">
<path d="M8269 22086 c-2 -2 -24 -7 -48 -10 -48 -6 -131 -50 -131 -68 0 -6 -3
-9 -6 -5 -3 3 -17 -7 -31 -24 -14 -16 -30 -26 -35 -22 -6 3 -8 1 -5 -4 4 -6
-8 -26 -26 -44 -47 -50 -107 -147 -107 -174 0 -8 -4 -15 -8 -15 -7 0 -29 -62
-39 -110 -1 -8 -9 -42 -16 -74 -16 -71 -14 -223 3 -295 6 -28 14 -68 15 -89 2
-20 4 -38 6 -39 1 -2 2 -6 4 -10 1 -5 5 -15 8 -23 25 -61 6 -165 -44 -240 -20
-30 -47 -89 -59 -130 -12 -41 -25 -77 -29 -80 -3 -3 -7 -27 -8 -55 -2 -27 -5
-56 -9 -65 -8 -18 -17 -123 -18 -202 -1 -32 -5 -58 -9 -58 -5 0 -5 -5 -2 -10
4 -6 9 -39 11 -73 3 -34 6 -69 8 -77 10 -49 21 -82 45 -135 16 -33 36 -89 45
-124 10 -35 26 -82 35 -105 10 -22 16 -47 14 -53 -3 -7 0 -13 6 -13 6 0 10 -3
9 -7 -4 -19 58 -148 84 -177 10 -11 18 -25 18 -31 0 -6 6 -17 13 -23 6 -7 12
-16 12 -20 1 -4 12 -25 26 -47 34 -53 48 -81 105 -200 25 -55 59 -118 74 -140
14 -22 37 -62 49 -90 13 -27 29 -57 36 -65 7 -8 21 -35 30 -60 9 -25 25 -61
35 -80 10 -19 21 -57 24 -85 5 -49 43 -172 66 -215 6 -12 12 -53 12 -92 0 -39
7 -91 15 -117 16 -54 22 -93 27 -181 1 -36 8 -75 14 -86 6 -11 9 -36 6 -55 -3
-19 -6 -65 -6 -103 -1 -38 -7 -89 -14 -113 -13 -41 -15 -57 -29 -170 -4 -29
-11 -53 -16 -53 -4 0 -6 -6 -3 -14 3 -8 0 -34 -6 -57 -7 -24 -12 -46 -12 -49
0 -3 -3 -9 -7 -15 -4 -5 -8 -26 -10 -45 -1 -19 -10 -68 -21 -110 -11 -42 -22
-96 -25 -120 -3 -25 -9 -67 -15 -95 -46 -224 -56 -485 -24 -659 4 -23 7 -45 6
-50 -2 -4 3 -14 9 -22 6 -8 8 -14 4 -14 -4 0 -2 -6 4 -13 6 -8 8 -16 5 -19 -3
-4 2 -20 11 -37 8 -17 14 -31 11 -31 -8 0 65 -142 92 -179 31 -42 128 -139
161 -161 13 -8 34 -23 46 -32 13 -10 26 -18 29 -18 3 0 31 -16 62 -36 31 -20
53 -30 49 -23 -6 9 -2 9 11 -2 15 -13 73 -33 124 -45 3 0 12 -3 20 -7 8 -3 26
-8 40 -10 14 -3 36 -8 50 -11 107 -25 389 -25 565 0 77 11 361 0 440 -17 67
-15 180 -77 290 -159 50 -37 135 -100 190 -140 55 -41 105 -79 111 -85 6 -5
40 -35 74 -65 35 -30 80 -73 101 -95 21 -22 78 -82 128 -134 50 -51 119 -125
153 -164 35 -38 68 -75 73 -81 6 -6 32 -38 60 -71 27 -33 52 -62 55 -65 36
-32 110 -131 105 -139 -3 -7 0 -8 9 -5 9 3 16 2 16 -2 0 -5 10 -21 23 -35 71
-84 263 -324 357 -449 30 -40 61 -78 68 -85 6 -8 12 -18 12 -23 0 -6 7 -12 15
-16 8 -3 15 -12 15 -20 0 -7 7 -16 15 -20 8 -3 15 -10 15 -16 0 -6 5 -16 10
-23 6 -7 24 -28 40 -47 16 -19 30 -38 30 -41 0 -3 9 -16 20 -29 11 -12 17 -28
13 -34 -3 -6 -3 -8 2 -4 9 8 45 -34 45 -52 0 -6 5 -8 10 -5 6 3 10 1 10 -5 0
-6 39 -62 88 -126 48 -64 92 -123 97 -132 6 -9 20 -27 32 -41 12 -13 20 -28
17 -33 -3 -4 -1 -8 5 -8 5 0 19 -15 30 -32 11 -18 32 -46 46 -62 14 -16 25
-32 25 -36 0 -4 13 -23 30 -41 16 -19 30 -37 30 -41 0 -5 0 -10 1 -12 0 -3 18
-23 39 -46 21 -23 45 -54 52 -70 7 -16 15 -27 19 -25 3 3 12 -8 20 -23 8 -15
20 -33 27 -40 7 -8 19 -27 27 -43 9 -16 19 -29 24 -29 4 0 13 -11 19 -24 6
-14 18 -33 26 -43 45 -54 106 -142 106 -152 0 -6 3 -11 8 -11 4 0 18 -18 32
-40 14 -22 28 -40 32 -40 5 0 8 -5 8 -10 0 -6 5 -16 10 -23 42 -49 49 -61 43
-70 -3 -6 -1 -7 5 -3 7 4 12 1 12 -7 0 -8 7 -17 15 -21 8 -3 15 -12 15 -19 0
-8 9 -22 20 -32 11 -10 20 -22 20 -26 0 -5 6 -17 14 -26 8 -10 54 -72 102
-138 119 -165 125 -173 157 -207 15 -16 27 -33 27 -36 0 -4 16 -24 35 -45 19
-21 49 -57 67 -79 18 -23 56 -66 85 -97 29 -31 53 -62 53 -70 0 -8 3 -11 6 -8
4 4 30 -19 58 -50 65 -73 287 -292 368 -363 34 -30 73 -66 87 -79 14 -14 44
-38 66 -55 40 -31 94 -77 125 -107 9 -8 24 -19 34 -22 10 -4 14 -12 10 -18 -4
-7 -3 -9 3 -6 5 3 25 -7 44 -22 41 -34 247 -190 279 -211 61 -42 79 -58 72
-65 -4 -5 -2 -5 5 -1 7 4 21 -2 33 -14 11 -11 23 -20 26 -20 9 0 99 -63 102
-72 2 -4 10 -8 17 -8 7 0 15 -3 17 -8 3 -8 218 -152 258 -172 14 -7 27 -16 30
-19 6 -8 28 -21 120 -73 41 -23 76 -45 78 -50 2 -4 11 -8 21 -8 9 0 22 -5 27
-10 6 -6 62 -37 125 -70 63 -32 118 -65 124 -74 12 -19 -1 -29 -104 -82 -42
-21 -78 -41 -81 -44 -3 -3 -12 -6 -20 -8 -8 -2 -22 -10 -31 -18 -8 -8 -23 -14
-32 -14 -9 0 -17 -3 -17 -8 0 -4 -15 -14 -32 -21 -18 -8 -39 -21 -47 -28 -7
-8 -18 -12 -24 -10 -6 2 -19 -5 -29 -15 -10 -10 -23 -16 -28 -13 -6 4 -10 2
-10 -4 0 -5 -38 -30 -84 -55 -112 -60 -259 -148 -267 -159 -3 -4 -12 -9 -20
-10 -8 -2 -29 -13 -46 -25 -17 -12 -35 -22 -40 -22 -6 0 -18 -9 -28 -20 -10
-11 -22 -20 -27 -20 -5 0 -36 -18 -68 -40 -32 -22 -64 -40 -69 -40 -6 0 -11
-3 -11 -8 0 -4 -20 -18 -45 -32 -25 -14 -45 -28 -45 -33 0 -4 -4 -6 -9 -3 -5
4 -11 3 -13 -1 -1 -5 -34 -28 -72 -53 -38 -24 -74 -49 -80 -55 -6 -5 -23 -16
-38 -24 -16 -8 -28 -18 -28 -23 0 -4 -5 -8 -11 -8 -6 0 -23 -9 -39 -20 -15
-11 -30 -17 -34 -13 -3 3 -6 1 -6 -5 0 -5 -17 -21 -37 -33 -21 -13 -44 -29
-51 -36 -13 -12 -28 -17 -45 -14 -5 1 -6 -3 -2 -8 3 -6 -11 -20 -32 -31 -21
-11 -56 -34 -78 -51 -22 -16 -56 -41 -75 -54 -19 -13 -69 -47 -110 -76 -41
-29 -77 -53 -80 -53 -3 -1 -4 -4 -3 -8 2 -5 -3 -8 -10 -8 -7 0 -24 -9 -37 -19
-90 -70 -122 -91 -133 -85 -7 4 -9 4 -5 0 10 -12 -28 -49 -41 -41 -7 3 -10 3
-9 -2 2 -4 0 -8 -4 -8 -4 0 -14 -9 -22 -20 -9 -11 -16 -17 -16 -12 0 4 -9 -1
-19 -10 -36 -34 -71 -61 -71 -57 0 3 -6 -1 -13 -8 -8 -7 -26 -22 -42 -33 -15
-11 -35 -28 -43 -37 -9 -9 -19 -15 -24 -12 -4 3 -8 -2 -8 -11 0 -9 -4 -14 -10
-10 -5 3 -18 -2 -28 -12 -37 -36 -75 -62 -84 -57 -4 3 -5 -3 -1 -13 3 -10 3
-15 -2 -11 -6 6 -94 -53 -151 -101 -7 -5 -15 -7 -18 -4 -3 4 -6 -2 -6 -12 0
-10 -3 -16 -6 -12 -3 3 -16 -5 -29 -18 -12 -14 -25 -22 -28 -18 -4 3 -7 1 -7
-6 0 -7 -4 -9 -10 -6 -5 3 -10 0 -10 -8 0 -13 -33 -31 -52 -28 -4 0 -4 -7 -1
-17 3 -9 3 -14 -1 -10 -7 6 -27 -7 -61 -39 -7 -7 -15 -10 -18 -7 -3 3 -8 -4
-12 -15 -3 -12 -11 -19 -16 -16 -5 4 -23 -9 -39 -27 -17 -18 -30 -29 -30 -25
0 5 -17 -8 -37 -27 -21 -20 -44 -36 -50 -36 -7 0 -13 -7 -13 -16 0 -8 -5 -12
-10 -9 -12 7 -42 -20 -32 -29 3 -4 -2 -4 -12 0 -13 5 -17 4 -12 -4 3 -6 -3
-13 -14 -17 -11 -3 -20 -11 -20 -16 0 -5 -6 -9 -14 -9 -8 0 -17 -7 -20 -16 -4
-9 -9 -14 -12 -11 -3 3 -14 -2 -23 -11 -10 -9 -31 -26 -46 -37 -16 -11 -34
-26 -42 -33 -7 -7 -13 -10 -13 -6 0 4 -8 -3 -19 -14 -10 -12 -21 -19 -25 -15
-3 3 -6 0 -6 -7 0 -7 -3 -11 -6 -8 -3 3 -17 -5 -32 -19 -15 -14 -51 -41 -79
-60 -29 -19 -53 -39 -53 -45 0 -5 -4 -6 -10 -3 -5 3 -10 1 -10 -4 0 -6 -7 -11
-15 -11 -8 0 -15 -4 -15 -10 0 -5 -5 -10 -11 -10 -7 0 -17 -7 -23 -14 -6 -8
-17 -16 -25 -18 -8 -2 -27 -16 -43 -31 -15 -15 -28 -25 -28 -22 0 4 -12 -3
-26 -14 -15 -11 -31 -18 -37 -14 -5 3 -7 1 -4 -4 8 -12 -61 -58 -80 -54 -8 1
-10 -4 -6 -15 4 -12 3 -15 -5 -10 -7 4 -15 1 -18 -7 -3 -9 -17 -18 -30 -21
-14 -4 -22 -11 -19 -16 3 -5 -4 -7 -15 -5 -11 2 -18 0 -15 -6 4 -5 1 -9 -5 -9
-6 0 -20 -9 -32 -20 -12 -10 -24 -17 -28 -15 -4 3 -13 -2 -20 -10 -7 -8 -19
-15 -27 -15 -8 0 -11 -4 -8 -10 3 -5 -1 -10 -9 -10 -8 0 -20 -8 -25 -18 -6 -9
-11 -12 -11 -5 0 7 -10 2 -23 -10 -24 -22 -85 -60 -100 -61 -5 -1 -14 -9 -21
-18 -7 -10 -16 -15 -19 -11 -4 3 -7 1 -7 -5 0 -6 -9 -9 -20 -7 -11 2 -18 0
-15 -5 3 -5 -10 -14 -29 -21 -19 -7 -33 -16 -31 -19 2 -4 -30 -25 -73 -47
-130 -68 -147 -78 -150 -86 -2 -4 -8 -5 -13 -1 -5 3 -9 0 -9 -6 0 -6 -4 -9 -9
-5 -5 3 -17 -2 -25 -11 -9 -8 -16 -12 -16 -8 0 4 -10 -1 -22 -12 -14 -13 -19
-14 -14 -4 4 9 2 8 -7 -3 -8 -9 -22 -17 -31 -17 -9 0 -16 -5 -16 -11 0 -5 -4
-7 -10 -4 -5 3 -10 1 -10 -5 0 -6 -4 -8 -10 -5 -5 3 -10 1 -10 -6 0 -6 -8 -9
-20 -6 -11 3 -18 1 -15 -3 7 -11 -30 -32 -39 -23 -3 3 -6 1 -6 -5 0 -7 -7 -12
-15 -12 -8 0 -15 -5 -15 -11 0 -5 -4 -8 -9 -5 -4 3 -19 -3 -31 -14 -12 -11
-27 -17 -31 -14 -5 3 -9 0 -9 -5 0 -6 -6 -11 -14 -11 -7 0 -19 -7 -26 -15 -7
-8 -16 -13 -20 -10 -4 3 -13 -2 -20 -10 -7 -8 -16 -12 -21 -9 -5 3 -9 0 -9 -7
0 -7 -3 -9 -6 -6 -4 3 -18 -3 -32 -13 -13 -11 -29 -20 -35 -20 -6 0 -19 -8
-30 -18 -15 -12 -19 -13 -13 -2 4 8 0 6 -8 -4 -9 -11 -16 -16 -16 -10 0 5 -7
1 -14 -9 -8 -10 -23 -19 -35 -20 -12 -1 -21 -5 -21 -10 0 -4 -4 -5 -10 -2 -5
3 -10 2 -10 -3 0 -9 -70 -47 -82 -44 -5 1 -8 -2 -8 -6 0 -10 -50 -37 -62 -34
-5 1 -8 -2 -8 -7 0 -5 -10 -11 -23 -15 -13 -3 -40 -17 -61 -31 -21 -14 -34
-20 -30 -13 4 7 -2 5 -13 -5 -11 -9 -27 -17 -36 -17 -9 0 -17 -4 -17 -9 0 -7
-24 -17 -60 -24 -3 0 -11 -7 -19 -14 -7 -8 -20 -12 -28 -9 -8 3 -11 1 -8 -4 3
-6 -3 -10 -14 -10 -12 0 -21 -4 -21 -9 0 -6 -9 -8 -20 -6 -11 2 -20 0 -20 -4
0 -9 -48 -26 -62 -23 -5 1 -8 -2 -8 -7 0 -7 -25 -19 -52 -25 -3 0 -10 -4 -14
-9 -4 -4 -16 -7 -26 -7 -10 0 -18 -5 -18 -11 0 -5 -4 -8 -9 -4 -5 3 -17 -2
-25 -11 -10 -10 -16 -11 -16 -3 0 9 -3 9 -15 -1 -8 -6 -19 -9 -25 -5 -6 4 -9
3 -8 -2 2 -4 -1 -10 -7 -12 -5 -2 -35 -15 -65 -28 -133 -57 -149 -63 -171 -63
-11 0 -17 -4 -14 -10 4 -6 -6 -10 -22 -10 -16 0 -34 -5 -41 -12 -8 -8 -12 -9
-12 -1 0 7 -12 6 -32 -5 -18 -9 -40 -17 -48 -19 -13 -2 -39 -13 -81 -33 -8 -4
-23 -4 -32 1 -13 8 -15 6 -11 -6 4 -9 3 -15 -2 -14 -5 1 -11 0 -14 -1 -7 -2
-41 -11 -60 -14 -8 -2 -28 -9 -45 -15 -16 -7 -42 -15 -57 -18 -16 -3 -28 -9
-28 -14 0 -5 -7 -6 -15 -3 -8 4 -15 1 -15 -5 0 -6 -5 -11 -11 -11 -5 0 -8 4
-5 8 3 5 -16 -1 -42 -14 -25 -12 -49 -21 -53 -19 -3 3 -29 -4 -58 -14 -28 -11
-51 -17 -51 -15 0 3 -12 -2 -27 -9 -16 -7 -35 -13 -43 -12 -8 0 -18 -3 -21 -7
-3 -5 -16 -11 -30 -14 -13 -3 -35 -8 -49 -11 -14 -3 -31 -6 -37 -6 -7 0 -13
-5 -13 -10 0 -6 -3 -7 -7 -4 -3 4 -13 1 -21 -6 -13 -10 -14 -9 -7 3 8 13 7 13
-8 1 -9 -7 -17 -10 -17 -6 0 4 -6 3 -12 -2 -7 -5 -22 -10 -33 -11 -31 -1 -73
-10 -85 -17 -5 -3 -10 -1 -10 6 0 9 -3 9 -14 0 -8 -6 -29 -14 -47 -17 -64 -10
-114 -16 -146 -17 -18 -1 -33 -4 -33 -7 0 -3 -17 -6 -37 -6 -21 0 -54 -3 -73
-7 -19 -3 -57 -9 -85 -13 -27 -4 -63 -9 -80 -11 -16 -2 -45 -5 -62 -6 -18 -1
-33 -5 -33 -9 0 -3 -8 -5 -17 -4 -10 2 -21 -2 -25 -8 -5 -7 -8 -7 -8 3 0 11
-3 11 -15 1 -8 -7 -22 -10 -30 -6 -8 3 -15 0 -15 -6 0 -6 -3 -8 -7 -5 -3 4
-12 2 -20 -4 -10 -9 -13 -8 -13 1 0 10 -3 10 -15 0 -9 -7 -18 -10 -22 -7 -3 4
-12 2 -20 -4 -7 -6 -22 -9 -33 -6 -11 3 -18 1 -14 -4 5 -9 -16 -13 -43 -10 -7
1 -13 -3 -13 -10 0 -8 -4 -8 -16 1 -12 11 -15 11 -12 1 3 -12 -11 -18 -54 -23
-10 -1 -18 -6 -18 -11 0 -4 -4 -6 -9 -3 -5 4 -12 0 -14 -6 -4 -9 -6 -9 -6 -1
-1 8 -10 7 -31 -3 -16 -9 -34 -13 -40 -9 -5 3 -10 2 -10 -3 0 -11 -51 -25 -92
-26 -14 0 -25 -3 -22 -5 7 -7 -130 -41 -144 -36 -8 3 -10 0 -6 -7 5 -7 2 -9
-8 -5 -9 3 -19 3 -22 -1 -8 -8 -42 -14 -88 -16 -21 0 -38 -3 -38 -6 0 -3 -14
-7 -31 -8 -17 -1 -39 -6 -48 -11 -9 -5 -22 -6 -28 -4 -7 3 -13 0 -13 -7 0 -6
-5 -8 -10 -5 -6 4 -17 2 -25 -5 -9 -8 -15 -8 -20 0 -5 8 -11 8 -20 0 -8 -7
-24 -13 -37 -16 -74 -13 -94 -17 -103 -23 -5 -4 -20 -6 -32 -5 -13 0 -23 -3
-23 -9 0 -5 -7 -4 -15 3 -9 7 -15 8 -15 2 0 -6 -19 -13 -42 -17 -24 -4 -49
-12 -55 -17 -9 -7 -13 -6 -13 3 -1 11 -3 11 -13 -1 -7 -8 -25 -16 -42 -18 -16
-2 -35 -8 -41 -13 -8 -7 -15 -6 -20 2 -5 9 -10 9 -18 -2 -11 -14 -23 -18 -61
-23 -11 -1 -27 -5 -35 -9 -8 -3 -30 -8 -48 -11 -18 -2 -38 -8 -45 -13 -7 -5
-24 -8 -39 -7 -16 0 -28 -3 -28 -9 0 -5 -9 -7 -20 -4 -11 3 -23 1 -26 -5 -3
-5 -15 -8 -25 -5 -11 3 -19 1 -19 -5 0 -6 -6 -8 -14 -5 -8 3 -17 1 -20 -6 -3
-9 -5 -8 -5 1 -1 10 -6 10 -21 2 -11 -6 -25 -8 -30 -5 -5 3 -11 2 -14 -3 -12
-20 -322 -19 -376 1 -59 22 -191 50 -237 50 -18 1 -33 3 -33 6 0 9 -145 15
-180 7 -21 -4 -54 -18 -60 -26 -3 -3 -27 -22 -55 -41 -27 -18 -52 -36 -55 -39
-5 -5 -24 -16 -99 -57 -25 -14 -52 -30 -58 -36 -7 -5 -13 -6 -13 -1 0 4 -25
-19 -56 -51 -62 -65 -59 -64 -159 -66 -53 -2 -74 -7 -88 -21 -10 -10 -22 -18
-26 -18 -5 0 -14 -13 -21 -30 -7 -16 -16 -30 -20 -30 -5 0 -7 -11 -5 -25 1
-14 -1 -25 -4 -25 -11 0 -7 -54 4 -62 6 -5 6 -8 -1 -8 -13 0 -12 -28 2 -52 5
-9 30 -39 57 -66 26 -28 47 -60 47 -72 0 -14 4 -19 12 -14 8 5 9 2 5 -10 -4
-9 -3 -15 1 -13 4 3 18 -10 32 -27 18 -22 19 -27 5 -16 -16 13 -16 10 4 -18
12 -17 25 -32 28 -32 3 0 -1 8 -8 17 -12 16 -12 17 2 6 9 -7 19 -10 23 -6 4 4
4 -1 0 -12 -6 -15 -4 -17 10 -12 10 4 15 3 11 -3 -3 -6 1 -10 9 -10 10 0 13
-6 9 -17 -4 -11 -3 -14 5 -9 7 4 12 2 12 -4 0 -6 5 -8 10 -5 6 3 10 -1 10 -9
0 -9 7 -16 15 -16 8 0 15 -4 15 -10 0 -5 6 -9 12 -7 7 1 12 -4 10 -11 -1 -8 2
-11 7 -8 5 3 14 -1 21 -9 7 -8 17 -15 22 -15 6 0 24 -10 41 -22 17 -12 27 -17
23 -10 -4 7 -3 12 3 12 5 0 13 -5 17 -11 3 -6 15 -9 25 -6 22 6 35 -8 18 -19
-16 -10 11 -25 34 -18 9 3 17 0 17 -6 0 -6 -4 -8 -10 -5 -5 3 -10 1 -10 -4 0
-14 33 -14 47 0 8 8 10 2 8 -20 -1 -16 0 -30 4 -29 18 2 32 -3 27 -10 -3 -5 1
-9 9 -9 8 0 11 5 8 11 -3 6 -3 8 2 4 4 -4 15 -2 24 4 13 10 14 10 3 -2 -6 -8
-12 -21 -11 -30 0 -10 2 -11 6 -2 2 6 9 12 14 12 6 0 8 -4 4 -9 -3 -5 -1 -12
5 -16 9 -5 15 15 11 38 -1 5 3 6 7 3 5 -3 8 -17 7 -31 -2 -17 0 -23 8 -18 7 4
21 9 32 10 16 2 17 1 5 -6 -8 -5 -18 -7 -22 -5 -15 9 -8 -3 9 -17 11 -10 14
-10 9 -1 -4 6 -2 12 3 12 6 0 11 -5 11 -11 0 -5 5 -7 10 -4 6 4 7 12 3 18 -3
7 3 4 15 -6 12 -12 26 -16 34 -11 10 6 10 4 -1 -9 -13 -16 -14 -16 -28 0 -13
16 -13 16 -3 -6 8 -16 15 -20 22 -13 13 13 40 3 31 -12 -4 -6 1 -5 10 3 9 7
17 10 17 5 0 -5 4 -15 9 -23 8 -13 12 -13 27 0 11 9 15 9 10 2 -4 -8 -2 -13 4
-13 6 0 9 -4 6 -9 -3 -5 0 -9 7 -8 41 1 67 -4 62 -13 -4 -6 -11 -7 -17 -4 -7
4 -8 2 -4 -4 4 -6 14 -8 23 -5 12 5 14 3 8 -7 -5 -8 -4 -11 3 -6 6 3 15 -2 21
-11 6 -10 11 -13 11 -6 0 8 7 10 18 6 15 -6 16 -5 2 13 -14 18 -14 18 4 4 18
-14 19 -13 13 3 -4 11 -3 16 4 12 6 -4 8 -14 5 -22 -5 -11 -2 -14 11 -9 15 5
15 4 -1 -9 -15 -11 -17 -18 -8 -27 8 -8 17 -7 34 4 22 15 24 14 26 -5 1 -16
-1 -18 -7 -8 -6 9 -11 10 -15 2 -6 -9 7 -16 17 -8 2 1 11 -4 19 -11 21 -17 61
-25 52 -10 -5 7 -2 8 5 3 7 -4 22 2 37 16 13 12 24 20 24 16 0 -3 -12 -17 -27
-31 -26 -24 -26 -25 -5 -23 12 1 22 4 22 7 0 3 9 6 20 7 11 1 20 -3 20 -8 0
-6 -4 -7 -10 -4 -5 3 -10 2 -10 -4 0 -5 -9 -8 -20 -6 -11 2 -20 -1 -20 -6 0
-5 6 -9 13 -8 24 3 38 -1 33 -9 -3 -5 1 -9 8 -9 7 0 13 7 12 16 -1 10 9 16 27
17 33 3 35 -9 5 -31 l-23 -17 23 7 c13 4 22 2 22 -5 0 -7 8 -9 22 -4 19 6 21
5 11 -8 -10 -12 -10 -15 2 -15 8 0 12 4 9 9 -3 4 -1 8 5 8 5 0 11 -6 14 -12 2
-7 8 0 12 15 5 21 12 26 25 22 10 -3 21 -1 25 5 8 13 25 13 25 -1 0 -5 -5 -7
-10 -4 -6 3 -13 -1 -16 -10 -5 -13 -9 -13 -22 -3 -10 8 -13 9 -9 1 4 -6 2 -13
-5 -15 -8 -3 -8 -9 -1 -22 9 -17 11 -17 16 -1 4 9 11 13 17 10 6 -4 8 -10 5
-15 -6 -10 43 -6 53 5 4 5 0 6 -10 2 -20 -7 -56 17 -40 27 7 4 12 3 12 -2 0
-5 15 -9 33 -8 17 2 38 -2 46 -8 12 -9 13 -8 6 4 -6 8 -10 18 -10 23 0 4 -4 6
-10 5 -5 -2 -9 -6 -8 -10 2 -5 -2 -8 -7 -8 -6 0 -10 5 -10 11 0 8 -5 7 -15 -1
-13 -11 -14 -10 -9 4 4 10 12 15 20 12 7 -3 14 0 16 6 3 8 12 6 29 -5 13 -10
23 -20 22 -22 -7 -12 -2 -26 6 -21 5 4 12 0 14 -6 4 -10 6 -10 6 0 1 7 -5 15
-13 18 -8 3 -13 11 -10 19 3 7 -2 15 -11 19 -9 3 -13 11 -9 18 5 8 2 9 -12 4
-14 -5 -16 -4 -7 5 13 13 36 2 27 -13 -5 -7 -1 -9 9 -5 9 3 16 3 16 -1 -4 -27
3 -41 21 -39 11 1 18 6 16 12 -2 5 -9 9 -15 8 -6 -2 -11 2 -11 7 0 14 13 13
28 -2 9 -9 12 -9 12 0 0 6 -8 16 -17 21 -10 6 -13 11 -6 11 6 0 15 -4 18 -10
3 -5 11 -10 17 -10 6 0 3 9 -7 20 -10 11 -22 17 -26 14 -5 -3 -9 0 -9 5 0 17
14 13 40 -9 22 -19 23 -21 5 -40 -26 -29 -13 -34 14 -6 22 23 51 25 51 4 0 -6
-6 -5 -15 2 -8 7 -15 10 -15 7 0 -7 30 -63 31 -57 5 30 9 43 15 48 4 4 4 -1 1
-10 -7 -20 9 -35 16 -16 4 10 6 10 6 1 1 -7 8 -10 17 -6 12 4 13 7 3 14 -8 4
-10 11 -6 16 11 10 27 -17 20 -33 -3 -7 -10 -12 -16 -11 -6 1 -16 -9 -24 -23
-12 -24 -14 -24 -17 2 -1 15 -39 20 -48 5 -6 -9 -8 -9 -8 0 0 6 -9 10 -20 8
-13 -3 -18 0 -14 7 5 7 2 8 -5 4 -14 -9 -8 -18 14 -23 8 -2 21 -4 29 -6 8 -2
20 -8 27 -14 8 -6 22 -9 31 -8 9 2 19 -3 22 -10 3 -9 -3 -11 -17 -9 -22 4 -22
4 1 -7 12 -7 22 -16 22 -21 0 -4 5 -8 11 -8 8 0 8 5 -1 15 -8 10 -9 15 -2 15
6 0 16 -9 22 -19 13 -25 13 -34 0 -26 -6 4 -7 -1 -3 -11 4 -11 8 -13 11 -6 2
7 13 12 23 12 11 0 17 5 14 10 -4 6 -10 8 -15 5 -11 -7 -33 32 -25 45 3 5 1
11 -5 15 -5 3 -10 1 -10 -4 0 -6 -5 -11 -11 -11 -5 0 -8 4 -5 9 4 5 0 11 -6
14 -10 3 -10 8 -2 17 9 9 18 5 38 -15 15 -15 30 -24 33 -21 4 3 -3 15 -15 26
-27 26 -28 36 -2 50 16 9 19 8 13 -6 -5 -14 -3 -14 14 -4 24 15 47 50 34 50
-6 0 -15 -8 -21 -17 -10 -17 -10 -17 -8 1 4 27 -27 44 -52 28 -17 -10 -25 -9
-45 4 -14 9 -25 21 -25 28 0 6 5 4 10 -4 5 -8 10 -11 10 -6 0 6 7 1 15 -10 14
-17 16 -17 28 -3 6 9 18 14 25 12 7 -3 10 1 6 11 -3 9 -10 13 -16 10 -5 -3 -2
8 6 25 10 18 12 31 6 31 -6 0 -16 -11 -22 -25 -13 -29 -23 -32 -32 -9 -9 23
-7 31 4 14 5 -8 13 -11 17 -6 4 4 -3 16 -16 27 -19 16 -21 22 -11 34 9 11 9
15 1 15 -7 0 -9 5 -6 10 3 6 1 10 -5 10 -7 0 -10 -7 -7 -15 4 -8 1 -17 -5 -21
-7 -4 -8 -3 -4 4 7 12 -3 15 -34 13 -10 0 -11 1 -2 5 6 3 9 11 5 17 -4 7 1 6
10 -2 9 -7 17 -9 17 -3 0 34 110 16 225 -38 117 -54 150 -68 190 -75 22 -4 45
-10 50 -15 8 -6 93 -31 158 -45 10 -2 32 -9 50 -14 46 -15 91 -25 100 -22 9 2
126 -30 221 -60 33 -11 75 -21 95 -24 20 -2 67 -16 106 -30 38 -14 83 -28 100
-31 16 -2 37 -7 45 -9 8 -2 31 -6 51 -9 20 -3 47 -9 60 -14 13 -5 35 -8 48 -7
14 1 54 -13 90 -31 36 -18 87 -35 112 -37 35 -3 59 -14 99 -46 28 -23 63 -44
76 -47 13 -3 24 -10 24 -14 0 -4 6 -8 13 -7 36 1 55 -5 82 -29 17 -14 46 -34
65 -44 19 -11 55 -37 79 -59 24 -22 46 -39 50 -38 11 3 145 -65 162 -82 8 -9
26 -24 40 -33 35 -26 148 -101 167 -113 10 -5 68 -43 131 -85 120 -78 124 -81
238 -141 101 -52 295 -122 378 -134 17 -3 57 -9 90 -14 67 -10 241 -6 295 7
19 5 40 10 45 11 79 15 221 83 293 141 63 49 110 100 172 184 24 34 47 63 50
66 3 3 20 34 38 70 18 36 37 72 42 80 5 8 50 101 101 205 51 105 104 208 119
230 15 22 43 70 63 107 63 116 181 273 199 262 5 -3 7 -1 6 5 -3 11 90 111
102 111 4 0 32 19 63 42 30 24 65 50 77 58 25 17 89 65 108 80 6 6 12 7 12 3
0 -4 5 0 11 10 5 9 17 17 24 17 8 0 15 4 15 9 0 5 16 16 35 25 19 9 35 21 35
27 0 6 5 7 10 4 6 -3 10 -1 10 4 0 6 7 11 15 11 8 0 15 5 15 10 0 6 7 10 15
10 8 0 15 4 15 9 0 9 58 35 73 32 4 0 7 3 7 9 0 11 212 120 235 120 8 0 15 5
15 12 0 6 3 9 6 6 3 -4 27 3 52 14 88 37 117 49 137 57 11 5 34 14 50 22 17 7
32 13 35 14 9 3 45 17 115 43 38 15 74 26 78 24 5 -1 14 2 21 7 6 5 23 12 36
15 14 3 65 19 114 36 49 17 95 29 103 26 7 -3 12 0 10 6 -1 7 3 12 8 13 12 1
83 23 110 35 22 9 46 17 58 19 4 0 23 7 42 15 19 8 35 13 35 10 0 -2 11 3 25
12 14 9 25 13 25 9 0 -4 6 -3 13 2 6 5 41 20 77 32 36 13 74 27 85 31 19 8 55
21 65 25 3 1 18 7 33 13 16 7 34 12 41 12 6 0 16 4 22 9 9 8 69 30 89 32 6 0
15 5 21 10 7 5 20 12 30 14 24 6 403 137 464 160 25 9 50 18 55 19 6 1 27 10
49 19 21 9 42 17 47 17 5 0 17 4 27 9 9 5 37 15 62 22 25 7 47 16 50 20 3 4
17 10 30 13 14 3 72 21 129 41 110 39 136 46 163 48 9 1 14 5 12 9 -3 4 12 10
33 14 21 4 53 13 70 21 18 7 34 13 35 12 2 -1 30 6 63 16 33 10 65 19 70 21 6
1 44 12 85 24 41 12 100 28 130 37 30 8 59 18 65 21 5 3 16 7 25 8 14 1 157
43 225 66 17 5 44 13 60 18 17 4 84 27 150 50 66 23 125 43 130 44 6 1 19 7
30 13 11 6 22 11 25 11 5 1 44 15 88 34 15 6 32 12 37 13 6 2 37 15 70 30 33
15 76 34 95 43 19 8 66 30 104 49 38 18 75 33 81 33 7 0 18 7 25 15 7 8 16 12
21 9 5 -3 9 -1 9 3 0 5 21 20 47 33 55 30 206 115 248 141 17 10 37 22 45 26
34 16 242 156 345 232 61 44 116 81 123 81 17 0 15 -45 -3 -81 -9 -16 -13 -34
-10 -39 3 -6 1 -10 -4 -10 -6 0 -10 -3 -9 -7 1 -5 -6 -25 -15 -46 -9 -21 -16
-41 -15 -45 1 -4 -6 -25 -15 -46 -10 -22 -20 -51 -24 -65 -3 -14 -10 -32 -16
-38 -5 -7 -6 -13 -2 -13 4 0 2 -7 -5 -15 -7 -8 -9 -15 -5 -15 4 0 1 -7 -6 -17
-8 -9 -13 -18 -11 -20 1 -1 2 -4 1 -5 0 -2 -2 -11 -4 -20 -8 -42 -37 -118 -44
-114 -4 3 -6 -8 -5 -25 1 -16 -2 -32 -7 -35 -5 -3 -9 -15 -9 -28 0 -12 -4 -26
-9 -31 -7 -9 -35 -99 -36 -117 0 -3 -3 -10 -7 -14 -5 -4 -8 -16 -8 -26 0 -10
-5 -18 -11 -18 -5 0 -7 -4 -4 -10 3 -6 3 -16 -2 -23 -8 -12 -10 -23 -17 -69
-3 -15 -8 -33 -12 -40 -5 -7 -10 -22 -11 -33 -2 -11 -6 -27 -10 -35 -8 -19
-12 -39 -15 -67 -1 -13 -5 -23 -9 -23 -3 0 -6 -6 -7 -12 -2 -33 -15 -84 -21
-88 -4 -3 -6 -12 -6 -20 1 -8 -1 -19 -4 -25 -3 -5 -7 -19 -8 -29 -2 -11 -8
-25 -13 -31 -5 -7 -8 -14 -5 -17 3 -2 -2 -31 -11 -64 -18 -70 -26 -104 -27
-121 0 -7 -3 -13 -7 -13 -3 0 -6 -10 -7 -22 -1 -24 -10 -71 -19 -100 -3 -10
-7 -30 -10 -45 -3 -16 -7 -36 -10 -45 -3 -9 -7 -27 -10 -40 -13 -58 -16 -74
-20 -96 -4 -28 -11 -60 -18 -92 -3 -14 -8 -36 -11 -50 -3 -14 -8 -41 -11 -60
-2 -19 -8 -55 -14 -80 -14 -66 -20 -99 -25 -152 -2 -26 -14 -75 -26 -110 -12
-35 -23 -70 -25 -78 -6 -34 -17 -60 -26 -60 -5 0 -6 -5 -3 -10 4 -6 2 -16 -3
-23 -6 -7 -10 -14 -10 -17 0 -3 -6 -25 -13 -50 -12 -45 -16 -59 -22 -83 -2 -6
-20 -64 -41 -127 -21 -63 -39 -119 -40 -125 -14 -54 -20 -71 -26 -80 -4 -5
-10 -23 -14 -40 -6 -27 -40 -148 -52 -185 -3 -8 -5 -17 -5 -20 -1 -3 -5 -10
-11 -17 -5 -7 -7 -16 -4 -22 4 -5 0 -16 -8 -24 -8 -8 -13 -17 -10 -19 2 -3 -1
-18 -7 -34 -7 -16 -11 -35 -10 -41 1 -7 -2 -13 -7 -13 -5 0 -9 -6 -9 -12 -2
-34 -15 -83 -24 -89 -6 -3 -10 -10 -10 -15 1 -10 -21 -92 -51 -184 -11 -36
-22 -72 -23 -80 -2 -8 -4 -15 -5 -15 -1 0 -3 -7 -5 -15 -19 -72 -41 -136 -47
-138 -4 -2 -8 -14 -8 -26 0 -13 -3 -26 -7 -30 -4 -3 -8 -12 -9 -19 -1 -7 -14
-50 -30 -97 -30 -90 -35 -108 -36 -127 -1 -7 -5 -13 -9 -13 -4 0 -6 -8 -5 -17
2 -10 0 -20 -3 -23 -6 -4 -58 -160 -107 -320 -4 -14 -7 -31 -5 -38 1 -8 -5
-25 -14 -38 -9 -14 -13 -29 -10 -34 3 -6 2 -10 -4 -10 -6 0 -14 -12 -17 -27
-4 -16 -10 -32 -14 -38 -9 -12 -24 -67 -22 -78 1 -4 -3 -7 -8 -7 -6 0 -10 -6
-8 -12 3 -18 -24 -88 -35 -88 -4 0 -5 -5 -2 -10 4 -6 2 -16 -3 -23 -6 -7 -12
-24 -14 -37 -2 -14 -12 -40 -21 -57 -10 -18 -17 -35 -17 -38 1 -21 -1 -25 -9
-21 -5 4 -7 -3 -4 -14 3 -12 0 -20 -6 -20 -7 0 -9 -5 -6 -10 4 -6 2 -17 -4
-24 -7 -8 -11 -18 -10 -22 1 -5 -3 -22 -10 -39 -7 -16 -14 -38 -16 -47 -2 -9
-9 -26 -15 -37 -6 -12 -8 -21 -5 -21 3 0 -2 -16 -10 -37 -8 -20 -18 -50 -21
-67 -3 -17 -9 -33 -15 -34 -5 -2 -7 -7 -4 -12 3 -4 -2 -29 -9 -54 -8 -26 -15
-49 -15 -51 -1 -3 -1 -6 -2 -7 0 -2 -2 -11 -4 -21 -2 -10 -7 -26 -11 -35 -3
-9 -8 -26 -9 -37 -2 -11 -12 -55 -23 -97 -11 -43 -17 -80 -14 -83 3 -3 0 -5
-6 -5 -7 0 -12 -17 -12 -45 l0 -45 2988 0 2987 0 0 173 c1 94 4 249 9 342 4
94 9 289 11 435 6 431 24 927 40 1085 2 22 6 83 10 135 4 52 8 113 10 135 2
22 6 90 10 150 3 61 8 121 10 135 11 67 24 554 31 1090 2 245 7 537 9 650 7
399 4 1585 -5 1585 0 0 -2 30 -3 68 -1 39 2 67 8 67 6 0 6 3 0 8 -6 4 -11 41
-12 82 -1 41 -3 179 -6 306 -2 127 -8 237 -12 244 -6 9 -4 11 5 5 9 -5 11 -2
7 11 -4 11 -9 150 -12 309 -9 376 -13 506 -20 640 -8 153 -9 168 -19 184 -7
10 -6 12 4 6 10 -6 11 -1 5 21 -7 27 -15 121 -18 207 -1 20 -4 37 -7 37 -3 0
-6 23 -6 50 1 28 -2 50 -6 50 -5 0 -8 5 -8 11 0 5 5 7 11 3 8 -4 8 -1 2 12 -6
11 -9 31 -8 47 1 15 -1 27 -4 27 -4 0 -6 17 -5 38 0 20 -3 45 -8 54 -6 13 -5
18 4 18 10 0 10 2 -1 9 -11 7 -11 9 0 14 8 3 9 6 2 6 -6 1 -9 10 -5 23 4 16 2
19 -9 13 -11 -7 -12 -6 -3 6 12 16 12 29 1 47 -5 6 -4 12 1 12 5 0 9 7 9 15 0
8 -4 15 -8 15 -10 0 -6 34 6 42 6 5 6 8 -2 8 -7 0 -11 16 -9 45 1 27 -3 50
-10 56 -9 7 -10 18 -4 35 7 16 6 24 -1 24 -7 0 -6 6 2 17 8 9 9 14 3 10 -11
-6 -17 42 -15 111 0 12 -4 22 -10 22 -5 0 -7 5 -4 10 4 6 12 7 18 3 7 -3 4 3
-5 14 -19 20 -24 38 -10 29 5 -3 9 1 9 9 0 8 -3 12 -7 10 -6 -4 -13 50 -12
102 0 13 -4 21 -8 18 -10 -6 -8 15 3 33 5 7 4 12 -2 12 -6 0 -11 5 -11 11 0 5
5 7 10 4 6 -3 10 1 10 9 0 9 -6 16 -12 16 -9 0 -8 4 2 10 8 5 10 10 4 10 -7 0
-11 11 -10 24 0 13 4 22 9 19 4 -2 7 1 7 6 0 6 -4 11 -10 11 -5 0 -10 7 -10
16 0 8 4 13 9 10 10 -7 9 13 -2 31 -4 6 -2 15 4 19 8 4 7 9 -2 15 -10 6 -11 9
-1 9 6 0 12 10 12 23 0 18 -2 19 -10 7 -6 -9 -10 -10 -10 -3 0 6 4 14 8 17 9
5 8 165 -3 401 -3 72 -8 175 -10 230 -2 55 -5 100 -5 100 -2 0 -5 18 -15 80
-4 22 -9 54 -12 70 -3 17 -6 35 -6 40 -1 6 -5 12 -8 15 -4 3 -9 16 -10 30 -2
14 -10 31 -17 39 -7 7 -11 20 -8 27 3 8 1 14 -4 14 -5 0 -14 10 -21 21 -8 15
-8 19 0 15 6 -4 11 -2 11 3 0 6 -5 11 -11 11 -6 0 -9 9 -6 20 3 10 2 19 -2 18
-21 -2 -29 4 -26 22 4 18 -6 25 -29 21 -5 -1 -3 6 5 15 9 12 9 15 1 10 -8 -5
-12 0 -12 13 0 12 -4 21 -10 21 -5 0 -12 11 -16 25 -3 14 -19 34 -35 45 -17
13 -26 26 -22 35 3 8 0 15 -6 15 -6 0 -11 7 -11 16 0 8 -5 12 -10 9 -5 -3 -10
1 -10 10 0 9 -5 13 -10 10 -6 -4 -10 -3 -9 2 4 21 -2 33 -15 33 -8 0 -18 9
-21 20 -3 11 -11 20 -17 20 -6 0 -9 3 -6 6 3 3 -12 23 -33 44 -21 21 -39 43
-39 49 0 6 -11 16 -25 23 -13 6 -22 14 -20 18 2 4 -7 13 -20 20 -14 7 -25 19
-25 27 0 7 -6 13 -12 13 -7 0 -26 11 -42 25 -16 13 -37 27 -47 30 -11 4 -19
11 -19 16 0 5 -11 14 -25 19 -14 5 -24 15 -23 22 2 7 -3 12 -10 10 -12 -2 -24
5 -63 41 -10 9 -19 14 -19 11 0 -4 -7 -1 -15 6 -8 7 -15 9 -15 5 0 -5 -8 2
-19 13 -10 12 -23 22 -29 22 -6 0 -15 6 -19 14 -4 8 -15 16 -23 18 -8 2 -22
11 -31 21 -19 20 -33 23 -24 5 4 -7 -6 1 -20 17 -15 17 -24 23 -19 15 5 -10 0
-8 -14 4 -12 11 -22 15 -22 11 0 -4 -8 2 -19 13 -10 12 -23 22 -29 22 -20 0
-72 36 -64 45 4 5 1 5 -5 1 -15 -8 -56 17 -45 28 4 4 2 6 -3 5 -18 -5 -85 22
-79 32 3 5 2 9 -3 8 -15 -3 -73 23 -73 33 0 6 -7 8 -15 4 -8 -3 -15 -1 -15 5
0 6 -4 7 -10 4 -5 -3 -10 -1 -10 4 0 6 -6 11 -14 11 -7 0 -19 7 -26 15 -7 8
-16 13 -20 10 -5 -3 -11 -1 -15 5 -3 5 -14 10 -24 10 -10 0 -24 7 -31 15 -7 8
-16 12 -21 9 -5 -3 -9 0 -9 5 0 6 -7 11 -16 11 -9 0 -30 10 -47 22 -17 12 -27
16 -22 7 4 -7 -3 -4 -16 8 -14 12 -34 24 -45 26 -12 1 -33 10 -47 20 -15 9
-31 17 -37 17 -5 0 -10 5 -10 11 0 5 -4 8 -9 5 -4 -3 -35 13 -67 36 -33 22
-60 39 -61 37 -1 -2 -12 4 -23 14 -11 9 -25 17 -30 17 -6 0 -10 5 -10 10 0 6
-5 10 -11 10 -6 0 -38 18 -70 40 -32 22 -64 40 -69 40 -6 0 -8 5 -4 12 4 6 3
8 -3 5 -6 -4 -34 9 -63 28 -29 19 -56 35 -60 35 -5 0 -10 4 -12 8 -3 9 -94 65
-120 75 -10 3 -18 11 -18 17 0 5 -7 10 -15 10 -8 0 -15 4 -15 10 0 5 -3 9 -7
8 -7 -2 -50 23 -78 45 -5 4 -32 22 -60 39 -27 18 -53 37 -57 43 -4 5 -8 6 -8
2 0 -5 -26 12 -57 36 -32 24 -65 46 -73 49 -14 6 -126 85 -180 129 -14 11 -37
28 -52 37 -16 9 -28 20 -28 24 0 4 -5 8 -10 8 -11 0 -24 10 -61 43 -10 9 -23
17 -27 17 -5 0 -17 9 -27 20 -10 11 -24 20 -31 20 -7 0 -16 9 -19 20 -4 11
-10 18 -14 15 -5 -2 -19 5 -32 16 -13 11 -37 30 -52 42 -35 27 -113 94 -144
125 -13 12 -26 22 -29 22 -15 0 -83 68 -76 76 4 4 2 4 -5 0 -6 -3 -18 2 -25
12 -7 11 -17 20 -21 20 -5 0 -36 25 -70 56 -33 31 -62 56 -64 56 -4 0 -53 41
-85 72 -15 14 -28 24 -28 21 0 -3 -7 0 -15 7 -8 7 -12 17 -8 24 3 6 3 8 -1 4
-11 -9 -212 141 -208 155 2 7 0 9 -4 5 -4 -4 -13 -3 -21 3 -7 6 -13 8 -13 5 0
-4 -12 5 -27 19 -15 14 -33 25 -40 25 -7 0 -13 4 -13 8 0 5 -24 24 -52 42 -29
19 -64 45 -78 57 -14 13 -33 26 -42 29 -10 3 -18 10 -18 15 0 6 -4 8 -8 5 -5
-3 -15 4 -22 15 -8 10 -20 19 -27 19 -6 0 -16 6 -20 13 -4 6 -25 21 -45 31
-21 11 -38 23 -38 28 0 5 -4 6 -10 3 -5 -3 -10 -2 -10 3 0 4 -19 19 -42 32
-51 28 -152 100 -156 112 -2 4 -10 8 -18 8 -8 0 -14 5 -14 10 0 6 -7 10 -15
10 -8 0 -15 5 -15 10 0 6 -6 10 -14 10 -8 0 -16 4 -18 9 -2 5 -17 17 -33 27
-80 49 -105 67 -105 75 0 5 -6 9 -13 9 -7 0 -22 8 -33 18 -10 10 -26 21 -34
24 -14 5 -240 164 -266 186 -6 6 -26 18 -45 27 -19 10 -36 21 -39 24 -10 13
-70 51 -79 51 -5 0 -20 9 -33 20 -39 34 -131 100 -139 100 -4 0 -14 6 -21 13
-7 6 -39 29 -70 50 -32 20 -58 42 -58 48 0 5 -4 8 -8 5 -5 -3 -18 4 -30 14
-12 11 -25 20 -30 20 -4 0 -22 10 -39 23 -57 42 -78 57 -143 104 -36 25 -66
50 -68 55 -2 4 -8 8 -14 8 -12 0 -141 90 -146 102 -2 4 -8 8 -13 8 -16 0 -149
90 -149 101 0 5 -4 8 -9 4 -5 -3 -17 5 -25 17 -9 12 -16 19 -16 15 0 -4 -20 7
-44 25 -24 18 -99 71 -166 117 -66 46 -126 89 -133 95 -7 6 -23 17 -37 24 -14
7 -40 26 -59 42 -18 17 -37 30 -41 30 -4 0 -17 9 -30 20 -12 11 -44 34 -71 51
-27 17 -49 35 -49 41 0 5 -4 6 -10 3 -5 -3 -15 3 -22 15 -7 11 -17 20 -23 20
-5 0 -26 14 -45 31 -19 17 -62 51 -95 77 -33 25 -65 51 -71 57 -6 5 -21 17
-34 25 -12 8 -34 26 -49 40 -58 53 -103 90 -109 90 -4 0 -34 25 -67 56 -33 30
-78 70 -100 87 -22 18 -62 53 -90 78 -27 25 -70 63 -94 85 -24 21 -73 67 -110
101 -36 35 -69 63 -73 63 -5 0 -8 7 -8 15 0 8 -4 15 -9 15 -13 0 -100 88 -93
95 3 3 0 5 -6 5 -7 0 -49 37 -96 83 -46 45 -133 131 -195 191 -61 59 -111 110
-111 111 0 2 -34 38 -75 80 -41 42 -75 77 -75 79 0 2 -19 23 -42 48 -100 105
-126 137 -120 143 4 4 2 5 -4 3 -5 -2 -26 15 -45 37 -31 37 -107 120 -136 151
-7 7 -13 15 -13 19 0 3 -12 18 -27 33 -16 15 -44 48 -63 74 -19 26 -41 48 -47
48 -7 0 -13 4 -13 9 0 8 -30 45 -75 92 -8 9 -15 19 -15 23 0 10 -113 136 -213
237 -32 33 -57 59 -55 59 2 0 -34 39 -79 86 -46 48 -83 91 -83 96 0 5 -9 18
-20 30 -10 12 -17 26 -13 31 3 6 2 7 -4 4 -10 -6 -38 40 -35 56 1 4 -3 7 -8 7
-6 0 -15 11 -20 25 -5 14 -13 25 -18 25 -5 0 -17 18 -28 40 -10 22 -22 40 -26
40 -5 0 -8 7 -8 15 0 8 -5 15 -11 15 -5 0 -8 4 -5 9 3 5 -1 12 -10 15 -9 4
-14 9 -11 12 3 4 -3 15 -14 27 -10 11 -19 27 -19 34 0 7 -4 13 -10 13 -5 0
-10 7 -10 15 0 8 -4 15 -10 15 -5 0 -10 5 -10 11 0 6 -14 29 -31 50 -17 21
-28 39 -25 39 3 0 -4 10 -15 23 -19 19 -62 77 -124 163 -11 15 -25 32 -30 38
-46 50 -83 100 -79 108 3 5 1 7 -5 6 -11 -3 -191 170 -191 184 0 4 -4 8 -8 8
-19 0 -218 219 -214 234 2 6 0 8 -3 4 -4 -4 -26 13 -48 38 -22 24 -56 61 -76
82 -20 21 -56 62 -81 91 -73 87 -113 134 -140 163 -14 15 -36 42 -50 59 -14
18 -34 43 -45 55 -11 12 -33 39 -50 60 -16 21 -39 48 -50 60 -42 47 -80 98
-77 107 1 5 -1 6 -6 3 -13 -8 -111 178 -116 221 -2 16 -5 28 -6 28 -4 0 -9 46
-16 140 -3 55 -8 103 -10 106 -1 3 -6 28 -9 55 -4 27 -11 67 -16 90 -4 22 -11
67 -15 99 -9 91 -72 265 -94 265 -4 0 -21 21 -38 48 -17 26 -47 65 -67 86 -31
35 -40 54 -36 79 0 4 -4 7 -10 7 -5 0 -8 4 -4 9 3 5 1 12 -5 16 -5 3 -10 15
-10 25 0 10 -21 36 -47 57 -27 21 -50 41 -51 46 -2 4 -8 4 -14 1 -6 -4 -6 1 1
13 7 14 7 23 -1 31 -8 8 -8 12 -2 12 6 0 11 6 11 13 10 148 10 178 -3 202 -9
18 -10 24 -1 19 7 -3 -1 6 -18 20 -41 36 -74 53 -110 57 -16 2 -33 7 -36 12
-3 4 -7 5 -10 3z m11176 -11096 c3 -6 -1 -7 -9 -4 -18 7 -21 14 -7 14 6 0 13
-4 16 -10z m340 -230 c3 -5 -23 10 -59 33 -36 23 -67 47 -70 54 -5 12 120 -72
129 -87z m81 -62 c4 -7 -9 1 -29 16 -20 16 -37 30 -37 33 0 7 58 -36 66 -49z
m94 -75 c0 -6 -33 15 -57 36 -40 33 -25 33 17 0 22 -18 40 -34 40 -36z m88
-82 c13 -13 21 -26 18 -29 -4 -3 -7 -3 -8 -1 -2 2 -23 27 -48 54 -43 47 -14
30 38 -24z m77 -81 c21 -22 37 -41 34 -43 -2 -3 -23 15 -46 39 -24 24 -39 44
-35 44 4 0 25 -18 47 -40z m89 -111 c-3 -5 -11 -9 -17 -8 -8 0 -8 2 1 6 10 4
10 8 0 21 -12 15 -11 16 4 3 10 -7 15 -17 12 -22z m46 -44 c7 -9 8 -15 2 -15
-5 0 -12 7 -16 15 -3 8 -4 15 -2 15 2 0 9 -7 16 -15z m50 -59 c0 -3 -4 -8 -10
-11 -5 -3 -10 -1 -10 4 0 6 5 11 10 11 6 0 10 -2 10 -4z m31 -63 c13 -16 12
-17 -3 -4 -10 7 -18 15 -18 17 0 8 8 3 21 -13z m23 -39 c3 -8 2 -12 -4 -9 -6
3 -10 10 -10 16 0 14 7 11 14 -7z m-14803 -5957 c-10 -9 -11 -8 -5 6 3 10 9
15 12 12 3 -3 0 -11 -7 -18z m-8 -17 c8 0 8 -3 0 -11 -9 -9 -16 -7 -30 7 -17
17 -17 18 0 11 10 -4 24 -7 30 -7z m175 -84 c16 -18 16 -18 -5 -5 -13 8 -23
19 -23 25 0 6 -10 16 -22 23 l-23 12 23 -5 c12 -2 23 1 23 7 1 7 4 1 6 -13 3
-14 12 -34 21 -44z m53 18 c12 -14 11 -16 -5 -13 -11 2 -21 10 -24 17 -5 17
13 15 29 -4z m-818 -412 c14 -15 14 -19 3 -19 -8 0 -14 5 -13 10 1 5 -6 11
-16 12 -27 5 -34 15 -10 15 11 0 27 -8 36 -18z m-82 -25 c-10 -9 -11 -8 -5 6
3 10 9 15 12 12 3 -3 0 -11 -7 -18z m44 5 c-3 -3 -11 0 -18 7 -9 10 -8 11 6 5
10 -3 15 -9 12 -12z m121 -20 c-6 -6 -56 10 -56 18 0 5 13 3 30 -3 16 -6 28
-13 26 -15z m27 -17 c-3 -9 -8 -14 -10 -11 -3 3 -2 9 2 15 9 16 15 13 8 -4z
m-88 -4 c3 -5 2 -12 -3 -15 -5 -3 -9 1 -9 9 0 17 3 19 12 6z m140 -11 c3 -5 1
-10 -4 -10 -6 0 -11 5 -11 10 0 6 2 10 4 10 3 0 8 -4 11 -10z m40 -10 c3 -6
-1 -7 -9 -4 -18 7 -21 14 -7 14 6 0 13 -4 16 -10z m-98 -19 c0 -11 -5 -18 -9
-15 -4 3 -5 11 -1 19 7 21 12 19 10 -4z m38 1 c-3 -3 -11 0 -18 7 -9 10 -8 11
6 5 10 -3 15 -9 12 -12z m82 -1 c0 -11 -5 -17 -9 -15 -4 3 -8 0 -8 -6 0 -6 -4
-9 -10 -5 -5 3 -2 14 8 25 22 23 21 23 19 1z m45 4 c3 0 8 -2 10 -5 2 -3 1 -4
-1 -3 -2 2 -10 -2 -18 -9 -7 -6 -16 -8 -20 -4 -3 3 -1 6 7 6 10 0 10 4 -1 17
-12 15 -12 16 1 8 8 -6 18 -10 22 -10z m-559 -35 c3 -11 2 -18 -3 -15 -4 3
-10 14 -13 25 -3 11 -2 18 3 15 4 -3 10 -14 13 -25z m627 -2 c0 -5 -7 -3 -15
6 -8 8 -15 18 -15 22 0 3 7 1 15 -6 8 -7 15 -17 15 -22z m-450 18 c0 -2 -8
-10 -17 -17 -16 -13 -17 -12 -4 4 13 16 21 21 21 13z m294 -22 c3 -8 2 -12 -4
-9 -6 3 -10 10 -10 16 0 14 7 11 14 -7z m116 9 c0 -5 -12 -9 -27 -10 -19 -1
-22 1 -12 8 17 11 39 12 39 2z m86 -5 c4 -6 3 -8 -4 -4 -6 3 -15 -2 -21 -11
-9 -16 -10 -15 -8 5 1 23 21 30 33 10z m-146 -2 c0 -2 -7 -7 -16 -10 -8 -3
-12 -2 -9 4 6 10 25 14 25 6z m215 -15 c-8 -14 -25 -14 -25 0 0 5 5 7 10 4 6
-3 10 -1 10 6 0 7 3 10 6 6 3 -3 3 -10 -1 -16z m60 -4 c15 -3 38 -55 31 -72
-3 -9 -10 -14 -14 -11 -5 3 -14 -6 -21 -21 -6 -14 -14 -23 -17 -20 -9 8 27 58
37 51 5 -3 9 4 9 15 0 12 -5 20 -12 19 -7 -2 -12 3 -13 10 0 15 -26 33 -37 26
-4 -3 -8 0 -8 6 0 8 7 9 18 5 9 -3 21 -7 27 -8z m-735 -7 c8 -5 11 -10 5 -10
-5 0 -17 5 -25 10 -8 5 -10 10 -5 10 6 0 17 -5 25 -10z m506 -27 c-3 -4 -6 -1
-6 7 0 10 -3 10 -17 -1 -15 -13 -15 -12 -2 8 11 19 15 20 22 7 5 -9 6 -18 3
-21z m108 15 c-5 -7 -7 -20 -6 -30 2 -9 -6 -31 -17 -49 l-21 -34 4 33 c3 22 0
35 -12 42 -9 5 -13 10 -8 10 5 0 18 -7 28 -17 17 -15 18 -15 18 5 0 12 -5 21
-11 20 -6 -2 -14 4 -16 12 -4 13 -3 13 6 0 10 -14 16 -7 12 13 -1 5 3 6 9 2 5
-3 10 -1 10 6 0 7 3 10 6 6 3 -3 2 -12 -2 -19z m-537 -33 c0 -8 -4 -12 -9 -9
-5 4 -7 9 -4 12 3 3 -2 15 -11 26 -18 21 -18 21 3 3 11 -9 21 -24 21 -32z
m367 29 c3 -8 2 -12 -4 -9 -6 3 -10 10 -10 16 0 14 7 11 14 -7z m100 1 c3 -8
1 -15 -4 -15 -6 0 -10 7 -10 15 0 8 2 15 4 15 2 0 6 -7 10 -15z m111 -3 c-3
-3 -11 0 -18 7 -9 10 -8 11 6 5 10 -3 15 -9 12 -12z m55 -1 c0 -17 -21 -24
-33 -12 -9 9 -7 10 7 5 13 -5 17 -4 12 4 -4 7 -2 12 3 12 6 0 11 -4 11 -9z
m105 -40 c-6 -5 -25 10 -25 20 0 5 6 4 14 -3 8 -7 12 -15 11 -17z m-391 11 c3
-5 -1 -9 -9 -9 -8 0 -12 4 -9 9 3 4 7 8 9 8 2 0 6 -4 9 -8z m256 -2 c18 -12 2
-12 -25 0 -13 6 -15 9 -5 9 8 0 22 -4 30 -9z m50 0 c0 -5 -4 -10 -10 -10 -5 0
-10 5 -10 10 0 6 5 10 10 10 6 0 10 -4 10 -10z m-570 -35 c-7 -8 -16 -15 -21
-15 -5 0 -1 8 9 18 20 22 31 19 12 -3z m86 -4 c0 -17 -3 -28 -6 -26 -5 3 -6
38 -1 53 4 10 7 -3 7 -27z m310 11 c0 -10 -6 -19 -13 -19 -8 0 -9 6 -2 19 5
10 11 18 12 18 2 0 3 -8 3 -18z m114 -8 c0 -8 5 -14 10 -14 6 0 10 -5 10 -10
0 -6 -8 -5 -19 2 -11 7 -18 15 -15 19 2 4 0 10 -6 14 -5 3 -10 1 -10 -6 0 -7
-3 -10 -6 -6 -3 3 -3 10 0 16 9 14 36 2 36 -15z m170 -40 c0 -13 -30 13 -44
39 l-19 32 32 -34 c17 -19 31 -36 31 -37z m-130 46 c0 -5 -4 -10 -10 -10 -5 0
-10 5 -10 10 0 6 5 10 10 10 6 0 10 -4 10 -10z m120 0 c0 -5 -2 -10 -4 -10 -3
0 -8 5 -11 10 -3 6 -1 10 4 10 6 0 11 -4 11 -10z m-544 -12 c5 -7 3 -8 -6 -3
-10 6 -12 4 -6 -11 5 -14 4 -16 -5 -7 -6 6 -8 16 -5 22 9 14 13 14 22 -1z
m198 -4 c3 -8 2 -12 -4 -9 -6 3 -10 10 -10 16 0 14 7 11 14 -7z m136 6 c0 -5
-5 -10 -11 -10 -5 0 -7 5 -4 10 3 6 8 10 11 10 2 0 4 -4 4 -10z m-260 -15 c0
-2 -6 -8 -13 -14 -10 -8 -14 -7 -14 2 0 8 6 14 14 14 7 0 13 -1 13 -2z m304
-18 c4 4 4 -1 0 -11 -5 -14 -4 -17 4 -12 7 4 12 2 12 -3 0 -16 -20 -13 -26 4
-4 8 -10 12 -15 9 -5 -3 -6 3 -2 13 6 16 5 17 -13 3 -18 -14 -18 -14 -5 3 13
17 16 17 26 3 7 -9 15 -13 19 -9z m-424 -13 c0 -2 -9 0 -20 6 -11 6 -20 13
-20 16 0 2 9 0 20 -6 11 -6 20 -13 20 -16z m164 15 c-7 -13 -43 -17 -38 -5 2
6 13 12 24 12 10 0 17 -3 14 -7z m75 -12 c12 20 14 13 5 -11 -9 -23 -19 -20
-38 12 l-17 27 20 -23 c18 -21 20 -21 30 -5z m19 -39 c-16 -15 -27 -32 -23
-38 4 -6 0 -7 -10 -4 -9 4 -14 13 -11 20 3 7 -3 18 -12 23 -9 6 -12 11 -6 11
5 0 15 -5 21 -11 16 -16 59 20 56 46 -3 20 -3 20 6 0 6 -15 1 -26 -21 -47z
m67 31 c-4 -5 3 -9 13 -9 15 0 19 5 16 23 -4 20 -4 20 5 2 5 -11 5 -24 1 -28
-9 -10 -43 -5 -38 5 2 4 -6 14 -17 23 -19 16 -19 16 3 5 12 -6 20 -15 17 -21z
m185 6 c0 -8 -2 -15 -4 -15 -2 0 -6 7 -10 15 -3 8 -1 15 4 15 6 0 10 -7 10
-15z m43 8 c-7 -2 -19 -2 -25 0 -7 3 -2 5 12 5 14 0 19 -2 13 -5z m-363 -13
c0 -5 -5 -10 -11 -10 -5 0 -7 5 -4 10 3 6 8 10 11 10 2 0 4 -4 4 -10z m440 0
c0 -5 -4 -10 -10 -10 -5 0 -10 5 -10 10 0 6 5 10 10 10 6 0 10 -4 10 -10z
m-53 -26 c13 -12 23 -24 23 -28 0 -4 -10 2 -22 14 -12 11 -30 20 -40 20 -10 0
-18 4 -18 9 0 15 33 7 57 -15z m-277 -4 c-8 -5 -19 -10 -25 -10 -5 0 -3 5 5
10 8 5 20 10 25 10 6 0 3 -5 -5 -10z m380 -22 c0 -6 -8 -4 -17 3 -15 12 -16
12 -9 -6 5 -15 4 -17 -5 -8 -6 6 -8 16 -5 22 8 12 36 3 36 -11z m-480 4 c0
-13 -12 -22 -22 -16 -10 6 -1 24 13 24 5 0 9 -4 9 -8z m367 -79 c0 -9 -4 -10
-14 -2 -7 6 -13 12 -13 14 0 1 6 2 13 2 8 0 14 -6 14 -14z"/>
<path d="M4340 3700 c-9 -6 -10 -10 -3 -10 6 0 15 5 18 10 8 12 4 12 -15 0z"/>
<path d="M5601 3513 c9 -9 7 -14 -5 -19 -16 -6 -16 -8 0 -25 13 -14 20 -16 25
-7 6 9 13 9 34 0 21 -10 31 -10 41 -1 10 8 14 8 15 0 1 -6 3 -15 4 -21 1 -5 3
-13 4 -17 0 -4 8 2 17 13 8 10 12 12 8 4 -4 -8 -5 -13 -1 -10 10 9 7 25 -5 25
-7 0 -12 9 -11 20 1 11 0 14 -3 7 -3 -6 -11 -9 -17 -5 -19 12 -70 13 -83 2 -8
-7 -14 -6 -19 1 -6 9 1 14 18 11 4 0 7 4 7 9 0 6 -5 10 -11 10 -5 0 -8 4 -5 8
3 5 -1 9 -9 9 -11 0 -12 -4 -4 -14z m99 -39 c0 -8 -19 -13 -24 -6 -3 5 1 9 9
9 8 0 15 -2 15 -3z"/>
<path d="M4840 3450 c-8 -5 -12 -12 -9 -15 4 -3 12 1 19 10 14 17 11 19 -10 5z"/>
<path d="M5646 3434 c-6 -15 5 -45 26 -71 13 -16 29 -7 22 12 -4 8 -10 13 -14
10 -10 -6 -25 14 -16 22 3 3 12 0 21 -7 8 -7 15 -8 15 -2 0 16 -28 34 -42 26
-10 -6 -9 -3 1 9 7 9 9 17 3 17 -5 0 -13 -7 -16 -16z"/>
<path d="M5685 3440 c-3 -6 1 -13 10 -16 11 -5 15 -14 11 -30 -5 -19 14 -54
30 -54 8 0 4 9 -12 24 -9 9 -11 16 -4 16 6 0 9 4 5 9 -3 5 0 13 6 17 8 4 9 3
5 -4 -7 -11 6 -17 27 -13 5 1 6 -3 2 -9 -7 -11 8 -14 18 -4 9 9 -4 35 -14 28
-6 -3 -16 0 -24 6 -8 7 -15 9 -15 5 0 -4 -7 -2 -15 5 -8 7 -12 16 -9 21 3 5 1
9 -5 9 -5 0 -13 -5 -16 -10z"/>
<path d="M5770 3445 c0 -2 5 -16 12 -30 8 -17 17 -24 27 -20 9 3 5 -3 -8 -13
-13 -11 -21 -24 -18 -29 6 -10 2 -11 -43 -16 -14 -1 -38 -14 -53 -29 -28 -26
-28 -27 -8 -37 29 -16 39 -13 16 5 -19 15 -19 15 8 10 19 -3 27 -1 24 7 -3 7
-9 11 -15 10 -7 -2 -9 4 -5 13 5 15 7 15 15 0 11 -19 29 -22 26 -3 -2 6 6 12
17 12 11 1 26 5 34 9 11 7 11 10 0 17 -7 4 -10 11 -6 16 13 12 27 -20 16 -34
-8 -8 -2 -16 20 -28 32 -16 43 -29 16 -19 -8 4 -15 1 -15 -6 0 -6 4 -9 9 -5 5
3 13 0 17 -6 4 -7 3 -9 -3 -6 -5 3 -10 0 -10 -8 0 -8 4 -12 8 -10 4 3 6 -3 5
-12 -2 -10 4 -24 13 -31 9 -8 10 -10 2 -6 -9 5 -12 3 -7 -4 10 -17 19 -15 34
9 8 12 10 19 5 16 -5 -3 -14 3 -21 14 -10 15 -10 19 0 19 7 0 5 5 -5 11 -9 6
-15 15 -11 21 4 6 9 5 15 -3 6 -10 8 -7 6 8 0 12 -6 21 -12 20 -5 -1 -9 4 -7
11 1 6 -3 12 -9 12 -5 0 -7 6 -3 13 5 8 2 8 -9 -2 -18 -14 -20 -12 -11 13 3 9
10 14 14 11 5 -3 12 -1 15 5 4 6 1 9 -7 8 -7 -2 -12 4 -10 13 1 9 -5 22 -13
29 -13 11 -14 10 -8 -6 6 -17 5 -17 -10 -5 -9 7 -14 17 -11 22 3 5 -3 6 -12 2
-12 -4 -15 -3 -10 5 4 7 2 12 -3 12 -6 0 -11 -2 -11 -5z m65 -62 c-2 -10 -4
-22 -4 -28 -1 -5 -5 -3 -11 5 -5 9 -5 19 2 27 14 17 17 16 13 -4z m24 -75 c11
-18 11 -18 -14 -2 -29 19 -30 21 -11 21 7 0 19 -9 25 -19z m21 -88 c6 -11 8
-20 6 -20 -3 0 -10 9 -16 20 -6 11 -8 20 -6 20 3 0 10 -9 16 -20z"/>
<path d="M5750 3420 c0 -5 5 -10 10 -10 6 0 10 5 10 10 0 6 -4 10 -10 10 -5 0
-10 -4 -10 -10z"/>
<path d="M5738 3373 c6 -2 10 -9 6 -14 -3 -5 2 -9 12 -9 13 0 14 3 4 15 -7 8
-18 15 -24 14 -7 0 -6 -2 2 -6z"/>
<path d="M5109 3347 c7 -7 14 -8 21 -1 6 6 2 10 -12 11 -16 2 -18 -1 -9 -10z"/>
<path d="M5480 3315 c-7 -8 -10 -16 -6 -16 31 -6 51 5 40 23 -8 12 -20 10 -34
-7z"/>
<path d="M5758 3313 c10 -4 7 -10 -10 -21 -13 -9 -26 -16 -30 -14 -5 1 -7 -4
-5 -10 4 -23 -37 -14 -60 12 -12 14 -23 20 -23 14 0 -6 9 -19 20 -29 11 -10
20 -24 20 -32 0 -8 5 -11 10 -8 6 4 7 11 4 17 -4 7 -2 8 5 4 6 -4 8 -12 5 -18
-5 -7 -1 -9 9 -5 9 3 19 2 22 -3 4 -6 12 -10 18 -10 7 1 3 9 -9 18 -17 15 -19
20 -7 30 7 7 13 8 13 3 0 -6 7 -8 15 -5 11 5 13 10 5 19 -8 9 -6 14 4 18 22 8
30 -11 14 -30 -11 -15 -11 -16 5 -10 10 4 21 7 23 7 3 0 2 5 -2 12 -4 7 -3 8
4 4 9 -5 9 -13 2 -26 -11 -20 2 -36 19 -26 5 4 8 -2 7 -11 -2 -10 2 -21 8 -25
7 -5 6 -8 -3 -8 -11 0 -9 -4 5 -15 16 -13 16 -14 2 -9 -17 6 -23 -5 -19 -29 1
-5 -4 -5 -10 -1 -8 5 -9 3 -4 -6 5 -8 4 -11 -3 -6 -6 4 -8 14 -5 24 6 15 5 15
-11 3 -17 -14 -17 -16 -1 -27 16 -12 16 -13 -3 -11 -11 0 -18 5 -15 11 4 5 0
6 -8 1 -12 -8 -12 -6 0 8 12 15 11 17 -5 19 -11 0 -27 1 -36 0 -20 -2 -24 18
-8 34 8 8 6 15 -5 24 -13 11 -14 10 -9 -4 3 -9 1 -16 -4 -16 -6 0 -9 -9 -7
-20 2 -12 0 -18 -6 -15 -5 4 -7 11 -4 16 4 5 2 9 -4 9 -5 0 -9 -9 -8 -20 1
-10 3 -17 6 -15 2 3 12 -2 22 -11 19 -17 44 -10 33 8 -4 7 -2 8 5 4 7 -4 9
-17 6 -29 -5 -16 -4 -18 3 -8 7 9 12 10 16 2 4 -6 11 -9 16 -6 5 3 16 -3 26
-12 17 -17 17 -17 11 -1 -3 10 -2 20 3 23 6 4 10 0 10 -7 0 -10 2 -10 9 1 5 7
11 9 13 5 3 -5 3 -4 2 3 -2 7 1 15 6 18 6 4 10 1 10 -6 0 -7 3 -9 6 -6 4 4 1
14 -7 23 -12 15 -11 16 11 10 19 -6 21 -5 10 3 -8 6 -11 11 -6 11 4 0 -2 8
-13 18 -12 9 -24 26 -25 37 -2 11 -9 19 -17 17 -10 -2 -10 0 0 12 9 10 9 16 1
21 -6 4 -9 13 -6 21 3 8 0 11 -10 7 -9 -3 -14 0 -12 7 2 7 -9 13 -27 15 -16 2
-24 1 -17 -2z m96 -172 c3 -5 -1 -14 -8 -20 -12 -10 -14 -9 -11 6 2 10 4 19 4
21 2 5 10 2 15 -7z m-129 -19 c-3 -3 -11 0 -18 7 -9 10 -8 11 6 5 10 -3 15 -9
12 -12z"/>
<path d="M5430 3298 c0 -4 4 -8 9 -8 6 0 12 4 15 8 3 5 -1 9 -9 9 -8 0 -15 -4
-15 -9z"/>
<path d="M5556 3288 c3 -5 10 -6 15 -3 13 9 11 12 -6 12 -8 0 -12 -4 -9 -9z"/>
<path d="M5430 3270 c0 -5 5 -10 10 -10 6 0 10 5 10 10 0 6 -4 10 -10 10 -5 0
-10 -4 -10 -10z"/>
<path d="M5745 3230 c8 -9 12 -19 9 -22 -3 -3 0 -9 7 -14 8 -5 10 -3 4 6 -6 9
-4 11 5 5 9 -6 11 -4 5 6 -7 12 -5 12 6 1 12 -11 12 -14 0 -21 -9 -6 -10 -11
-2 -15 6 -4 15 2 20 15 8 23 8 23 13 -4 3 -16 1 -24 -5 -20 -5 3 -13 -1 -18
-8 -6 -10 -9 -10 -9 -2 0 7 -7 10 -17 6 -15 -6 -14 -7 3 -14 10 -3 25 -1 33 5
8 6 17 10 20 9 15 -7 5 43 -11 55 -10 7 -15 19 -12 25 5 8 3 8 -7 0 -7 -7 -20
-13 -28 -13 -14 0 -14 1 -1 10 12 7 10 9 -7 7 -20 -1 -21 -3 -8 -17z"/>
<path d="M5633 3216 c4 -10 7 -20 7 -23 0 -3 8 1 17 8 10 8 14 9 10 2 -8 -13
8 -27 23 -18 12 7 3 32 -13 32 -7 0 -21 4 -31 9 -16 6 -18 4 -13 -10z"/>
<path d="M5722 3204 c14 -16 15 -23 6 -32 -17 -17 -7 -21 19 -7 22 12 22 12
-10 35 -26 19 -29 20 -15 4z"/>
<path d="M5906 3183 c-6 -14 -5 -15 5 -6 7 7 10 15 7 18 -3 3 -9 -2 -12 -12z"/>
</g>
</svg>
