<svg xmlns="http://www.w3.org/2000/svg" viewBox="0 0 67.13 77.33">
  <defs>
    <style>
      .cls-1 {
        fill: #282828;
      }
    </style>
  </defs>
  <title>cblogo</title>
  <g id="Layer_2" data-name="Layer 2">
    <g id="logo">
      <polygon id="star" class="cls-1" points="47.36 23.24 54.91 18.2 62.46 23.24 60 14.5 67.13 8.88 58.05 8.52 54.91 0 51.76 8.52 42.69 8.88 49.82 14.5 47.36 23.24 47.36 23.24"/>
      <path id="cb" class="cls-1" d="M60.8,55.55a12.79,12.79,0,0,0-4.77-4,12,12,0,0,0,3.42-3.74,14,14,0,0,0,1.94-7.15,14.46,14.46,0,0,0-.84-4.78,14.11,14.11,0,0,0-2.38-4.24,12.62,12.62,0,0,0-3.76-3.07,10.62,10.62,0,0,0-5-1.2H24.53V49.84a13.41,13.41,0,0,1-6.83-1.38,15.75,15.75,0,0,1-2.93-2,16.72,16.72,0,0,1-2-1.9A18.92,18.92,0,0,1,9.55,38.9a19.53,19.53,0,0,1-1.17-6.76,21.13,21.13,0,0,1,1-6.35,17.67,17.67,0,0,1,2.93-5.61,15.12,15.12,0,0,1,4.79-4A14.54,14.54,0,0,1,27,15a13.14,13.14,0,0,1,3.36,1.24,12.22,12.22,0,0,1,3,2.27,12.7,12.7,0,0,1,2.37,3.52l.56,1.18L43,18.91l-.43-.9a19.07,19.07,0,0,0-7.2-8A21.29,21.29,0,0,0,23.84,7a22.71,22.71,0,0,0-10.11,2.2,23.43,23.43,0,0,0-7.51,5.75,24.94,24.94,0,0,0-4.64,8,26.91,26.91,0,0,0,5,26.51A25.39,25.39,0,0,0,14,55.31c.26.13.54.23.8.36l.51.22c.5.22,1,.43,1.54.6.35.12.71.23,1.06.33.54.16,1.08.28,1.63.39.37.07.74.13,1.12.18a20.85,20.85,0,0,0,2.87.2c.34,0,.69,0,1,0a23.69,23.69,0,0,0,4.89-.75,24.74,24.74,0,0,0,5.74-2.25,20.62,20.62,0,0,0,2-1.21c.42-.29.83-.6,1.23-.91a22.5,22.5,0,0,0,1.71-1.53c.36-.37.71-.75,1-1.14s.63-.81.92-1.24a16.59,16.59,0,0,0,1.48-2.72l.29-.75-.72-.65h0l-5.13-4.72s-.53,1.21-.82,1.76a17.13,17.13,0,0,1-1.32,2.08A19.22,19.22,0,0,1,34,45.61a14,14,0,0,1-1.18,1V34.88H47.29a5.34,5.34,0,0,1,2.31.51,5.1,5.1,0,0,1,1.83,1.37A7.51,7.51,0,0,1,52.67,39a8.14,8.14,0,0,1,.47,2.77,7,7,0,0,1-.49,2.64,7.24,7.24,0,0,1-1.33,2.18,6.34,6.34,0,0,1-2,1.45,5.65,5.65,0,0,1-2.46.52H44.71c-.25.44-.51.87-.79,1.29a17.61,17.61,0,0,1-2.24,2.72,24,24,0,0,1-3.58,2.94c-.21.14-.12.22,0,.22H48.77a5.44,5.44,0,0,1,2.45.56,6.34,6.34,0,0,1,2,1.53,8,8,0,0,1,1.35,2.32A7.92,7.92,0,0,1,55,62.83a7,7,0,0,1-2,4.89,7.35,7.35,0,0,1-2.16,1.54,5.9,5.9,0,0,1-2.6.57H32.84V58.15a27.74,27.74,0,0,1-2.85.9,26.53,26.53,0,0,1-5.35.77h-.11v17.5H48.3a17.64,17.64,0,0,0,5.78-.93,15.19,15.19,0,0,0,4.79-2.69,13,13,0,0,0,3.31-4.27,12.56,12.56,0,0,0,1.22-5.53,13.81,13.81,0,0,0-2.6-8.36"/>
    </g>
  </g>
</svg>
