<?xml version="1.0" encoding="utf-8"?>
<!-- Generator: Adobe Illustrator 22.0.1, SVG Export Plug-In . SVG Version: 6.00 Build 0)  -->
<svg version="1.1" id="cb-logo" xmlns="http://www.w3.org/2000/svg" xmlns:xlink="http://www.w3.org/1999/xlink" x="0px" y="0px"
	 width="100px" height="100px" viewBox="0 0 100 100" style="enable-background:new 0 0 100 100;" xml:space="preserve">
<style type="text/css">
	.st0{fill:#FFFFFF;}
</style>
<polygon id="star" class="st0" points="62.8,34.1 70.9,28.7 79,34.1 76.4,24.7 84,18.7 74.3,18.3 70.9,9.2 67.5,18.3 57.8,18.7 
	65.5,24.7 62.8,34.1 "/>
<path id="cb" class="st0" d="M77.2,68.7c-1.3-1.8-3.1-3.3-5.1-4.3c1.5-1.1,2.7-2.4,3.7-4c1.4-2.3,2.1-4.9,2.1-7.7
	c0-1.7-0.3-3.4-0.9-5.1c-0.6-1.7-1.5-3.2-2.5-4.5c-1.1-1.3-2.5-2.4-4-3.3c-1.6-0.9-3.4-1.3-5.4-1.3H38.4v24.1
	c-2.6,0.1-5.1-0.4-7.3-1.5c-1.1-0.6-2.2-1.3-3.1-2.1c-0.7-0.6-1.5-1.3-2.1-2c-1.5-1.8-2.7-3.8-3.5-6.1c-0.8-2.3-1.3-4.7-1.3-7.2
	c0-2.3,0.4-4.6,1.1-6.8c0.7-2.2,1.8-4.2,3.1-6c1.4-1.8,3.1-3.2,5.1-4.3c2.9-1.6,6.7-2.1,10.6-1.2c1.2,0.3,2.4,0.7,3.6,1.3
	c1.2,0.6,2.2,1.4,3.2,2.4c1,1,1.8,2.3,2.5,3.8l0.6,1.3l7.2-4.6l-0.5-1C56,25,53.5,22.1,50,19.9c-3.4-2.2-7.6-3.3-12.4-3.3
	c-4,0-7.6,0.8-10.8,2.4c-3.2,1.6-5.9,3.6-8,6.2c-2.2,2.5-3.8,5.4-5,8.6c-1.1,3.2-1.7,6.4-1.7,9.6c0,3.4,0.6,6.8,1.8,10
	c1.2,3.3,3,6.2,5.2,8.8c2.2,2.6,4.9,4.7,7.9,6.3c0.3,0.1,0.6,0.3,0.9,0.4c0.2,0.1,0.4,0.2,0.5,0.2c0.5,0.2,1.1,0.5,1.7,0.6
	c0.4,0.1,0.8,0.2,1.1,0.4c0.6,0.2,1.2,0.3,1.7,0.4c0.4,0.1,0.8,0.1,1.2,0.2c1,0.1,2,0.2,3.1,0.2c0.4,0,0.7,0,1.1,0
	c1.7-0.1,3.5-0.4,5.2-0.8c2.1-0.5,4.2-1.4,6.1-2.4c0.7-0.4,1.4-0.8,2.1-1.3c0.5-0.3,0.9-0.6,1.3-1c0.6-0.5,1.2-1.1,1.8-1.6
	c0.4-0.4,0.8-0.8,1.1-1.2c0.4-0.4,0.7-0.9,1-1.3c0.6-0.9,1.1-1.9,1.6-2.9l0.3-0.8l-0.8-0.7l0,0l-5.5-5.1c0,0-0.6,1.3-0.9,1.9
	c-0.3,0.6-1,1.6-1.4,2.2c-0.7,0.9-1.2,1.5-1.9,2.2c-0.4,0.4-0.8,0.8-1.3,1.1V46.5h15.5c0.9,0,1.7,0.2,2.5,0.5c0.8,0.4,1.4,0.9,2,1.5
	c0.6,0.7,1,1.5,1.3,2.4c0.3,0.9,0.5,1.9,0.5,3c0,1-0.2,1.9-0.5,2.8c-0.4,0.9-0.8,1.7-1.4,2.3c-0.6,0.7-1.3,1.2-2.1,1.6
	c-0.8,0.4-1.7,0.6-2.6,0.6H60c-0.3,0.5-0.5,0.9-0.8,1.4c-0.7,1-1.5,2-2.4,2.9c-1.2,1.2-2.5,2.2-3.8,3.1c-0.2,0.2-0.1,0.2,0,0.2h0.8
	h10.7c1,0,1.8,0.2,2.6,0.6c0.8,0.4,1.5,1,2.1,1.6c0.6,0.7,1.1,1.5,1.4,2.5c0.4,0.9,0.5,1.9,0.5,2.9c0,1-0.2,1.9-0.6,2.9
	c-0.4,0.9-0.9,1.7-1.5,2.4c-0.7,0.7-1.4,1.2-2.3,1.7c-0.8,0.4-1.8,0.6-2.8,0.6H47.3V71.4c-1,0.4-2,0.7-3.1,1
	c-1.8,0.5-3.7,0.7-5.7,0.8c0,0-0.1,0-0.1,0V92h25.5c2.2,0,4.3-0.3,6.2-1c1.9-0.7,3.7-1.6,5.1-2.9c1.5-1.3,2.7-2.8,3.5-4.6
	c0.9-1.8,1.3-3.8,1.3-5.9C80,74.2,79.1,71.2,77.2,68.7"/>
</svg>
