<?xml version="1.0" encoding="utf-8"?>
<!-- Generator: Adobe Illustrator 22.0.1, SVG Export Plug-In . SVG Version: 6.00 Build 0)  -->
<svg version="1.1" id="Layer_1" xmlns="http://www.w3.org/2000/svg" xmlns:xlink="http://www.w3.org/1999/xlink" x="0px" y="0px"
	 viewBox="0 0 1366 618" style="enable-background:new 0 0 1366 618;" xml:space="preserve">
<style type="text/css">
	.st0{fill:#6C63FF;}
	.st1{fill:#8E8EA3;}
	.st2{fill:#2F2E41;}
	.st3{fill:#D87844;}
	.st4{fill:#A0616A;}
	.st5{fill:#474751;}
	.st6{fill:#3F3D56;}
	.st7{fill:none;}
</style>
<g>
	<path class="st0" d="M531.8,264.8c-1.6,0-2.9,1.3-2.9,2.9c0,1.6,1.3,2.9,2.9,2.9c1.6,0,2.9-1.3,2.9-2.9
		C534.7,266.1,533.4,264.8,531.8,264.8z M531.8,251.9c-1.6,0-2.9,1.3-2.9,2.9s1.3,2.9,2.9,2.9c1.6,0,2.9-1.3,2.9-2.9
		S533.4,251.9,531.8,251.9z M531.8,239.1c-1.6,0-2.9,1.3-2.9,2.9c0,1.6,1.3,2.9,2.9,2.9c1.6,0,2.9-1.3,2.9-2.9
		C534.7,240.4,533.4,239.1,531.8,239.1z M531.8,226.3c-1.6,0-2.9,1.3-2.9,2.9s1.3,2.9,2.9,2.9c1.6,0,2.9-1.3,2.9-2.9
		S533.4,226.3,531.8,226.3z M571.8,193c-2.8-4.6-7.9-7.4-13.3-7.4c-8.6,0-15.6,7-15.6,15.6c0,5.4,2.8,10.4,7.4,13.3
		c0,0,0.1,0.1,0.1,0.1c1.5-4.5,6.4-6.9,10.9-5.3c2.5,0.9,4.5,2.8,5.3,5.3c0,0,0.1-0.1,0.1-0.1C574.1,210,576.4,200.3,571.8,193z
		 M562.5,205.7c-1,1-2.4,1.6-3.9,1.6c-3.1,0-5.5-2.5-5.5-5.5c0-3.1,2.5-5.5,5.5-5.5s5.5,2.5,5.5,5.5
		C564.1,203.3,563.5,204.7,562.5,205.7z M574.6,264.8h-32.1c-0.8,0-1.5,0.3-2,0.8c-0.5,0.5-0.8,1.2-0.8,2c0,1.6,1.3,2.9,2.9,2.9
		h32.1c0.8,0,1.5-0.3,2-0.8c0.5-0.5,0.8-1.2,0.8-2C577.5,266.1,576.2,264.8,574.6,264.8z M574.6,251.9h-32.1c-0.8,0-1.5,0.3-2,0.8
		c-0.5,0.5-0.8,1.2-0.8,2c0,1.6,1.3,2.9,2.9,2.9h32.1c0.8,0,1.5-0.3,2-0.8c0.5-0.5,0.8-1.2,0.8-2
		C577.5,253.2,576.2,251.9,574.6,251.9z M574.6,239.1h-32.1c-0.8,0-1.5,0.3-2,0.8c-0.5,0.5-0.8,1.2-0.8,2c0,1.6,1.3,2.9,2.9,2.9
		h32.1c0.8,0,1.5-0.3,2-0.8c0.5-0.5,0.8-1.2,0.8-2C577.5,240.4,576.2,239.1,574.6,239.1z M574.6,226.3h-32.1c-0.8,0-1.5,0.3-2,0.8
		c-0.5,0.5-0.8,1.2-0.8,2c0,1.6,1.3,2.9,2.9,2.9h32.1c0.8,0,1.5-0.3,2-0.8c0.5-0.5,0.8-1.2,0.8-2
		C577.5,227.6,576.2,226.3,574.6,226.3z M586.7,291.6c-3.7-3.8-8.8-6-14.2-5.9c-5.4,0.2-10.6,2.5-14.6,6.1c-1,0.9-1.9,1.9-2.8,3
		c0.7,0.2,1.4,0.6,1.8,1.2c5.6-6.9,15.5-10.6,23.7-6.2c4.3,2.3,7.7,6.3,8.7,11.1c0.3,1.3,0.4,2.6,0.3,3.9h2.1
		C592.1,299.8,590.1,295.1,586.7,291.6z"/>
	<path class="st1" d="M487.6,173.5v131.2h102.1c0.1-1.3,0-2.6-0.3-3.9c-1.1-4.8-4.5-8.8-8.7-11.1c-8.3-4.4-18.1-0.7-23.7,6.2
		c0.5,0.6,0.8,1.4,0.8,2.3c0,2-1.6,3.6-3.6,3.6s-3.6-1.6-3.6-3.6s1.6-3.6,3.6-3.6c0.3,0,0.6,0,0.9,0.1c0.8-1.1,1.8-2.1,2.8-3
		c4-3.6,9.2-6,14.6-6.1c5.3-0.1,10.5,2,14.2,5.9c3.4,3.5,5.5,8.2,5.2,13.1h26.9V173.5H487.6z M558.6,185.6c5.4,0,10.4,2.8,13.3,7.4
		c4.5,7.3,2.3,17-5,21.5c0,0-0.1,0.1-0.1,0.1c-0.9-2.5-2.8-4.5-5.3-5.3c-4.5-1.5-9.3,0.9-10.9,5.3c0,0-0.1-0.1-0.1-0.1
		c-4.6-2.8-7.4-7.9-7.4-13.3C542.9,192.6,549.9,185.6,558.6,185.6z M531.8,270.5c-1.6,0-2.9-1.3-2.9-2.9c0-1.6,1.3-2.9,2.9-2.9
		c1.6,0,2.9,1.3,2.9,2.9C534.7,269.2,533.4,270.5,531.8,270.5z M531.8,257.7c-1.6,0-2.9-1.3-2.9-2.9s1.3-2.9,2.9-2.9
		c1.6,0,2.9,1.3,2.9,2.9S533.4,257.7,531.8,257.7z M531.8,244.8c-1.6,0-2.9-1.3-2.9-2.9c0-1.6,1.3-2.9,2.9-2.9
		c1.6,0,2.9,1.3,2.9,2.9C534.7,243.5,533.4,244.8,531.8,244.8z M531.8,232c-1.6,0-2.9-1.3-2.9-2.9s1.3-2.9,2.9-2.9
		c1.6,0,2.9,1.3,2.9,2.9S533.4,232,531.8,232z M576.6,269.7c-0.5,0.5-1.2,0.8-2,0.8h-32.1c-1.6,0-2.9-1.3-2.9-2.9
		c0-0.8,0.3-1.5,0.8-2c0.5-0.5,1.2-0.8,2-0.8h32.1c1.6,0,2.9,1.3,2.9,2.9C577.5,268.4,577.1,269.1,576.6,269.7z M576.6,256.8
		c-0.5,0.5-1.2,0.8-2,0.8h-32.1c-1.6,0-2.9-1.3-2.9-2.9c0-0.8,0.3-1.5,0.8-2c0.5-0.5,1.2-0.8,2-0.8h32.1c1.6,0,2.9,1.3,2.9,2.9
		C577.5,255.6,577.1,256.3,576.6,256.8z M576.6,244c-0.5,0.5-1.2,0.8-2,0.8h-32.1c-1.6,0-2.9-1.3-2.9-2.9c0-0.8,0.3-1.5,0.8-2
		c0.5-0.5,1.2-0.8,2-0.8h32.1c1.6,0,2.9,1.3,2.9,2.9C577.5,242.8,577.1,243.5,576.6,244z M576.6,231.1c-0.5,0.5-1.2,0.8-2,0.8h-32.1
		c-1.6,0-2.9-1.3-2.9-2.9c0-0.8,0.3-1.5,0.8-2c0.5-0.5,1.2-0.8,2-0.8h32.1c1.6,0,2.9,1.3,2.9,2.9
		C577.5,229.9,577.1,230.6,576.6,231.1z"/>
	<path class="st0" d="M789.7,250.3c1.5,1.4,2.8,3,4,4.6c0.4-0.5,0.9-0.9,1.6-1.3C793.9,252.7,791.9,251.5,789.7,250.3z M784.2,246
		c-0.2,0.5-0.5,1-0.8,1.5c2.1,0.7,4.3,1.7,6.2,2.8C788,248.6,786.2,247.2,784.2,246z M677.5,329.6c-0.6-3.2-1.5-6.4-2.5-9.5
		c-0.4-1.3-2.5-0.7-2.1,0.6c3.7,11.7,5.7,25.2-1.4,36c-2.9,4.6-7.5,7.9-12.8,9.2c-0.9,0.2-1.8,0.4-2.7,0.5c0.4-1.4,0.6-2.8,0.8-4.3
		c0.6-5.3,0-10.9-2.4-15.7c-1.3-2.6-3.2-4.8-5.6-6.3c-1.6-1-3.4-1.6-5.2-2c0.1,0.7,0.1,1.5,0.2,2.2c1.1,0.3,2.1,0.7,3.1,1.2
		c4.9,2.6,7.1,8,7.8,13.3c0.5,4,0.2,8-0.9,11.9c-1.2,0.1-2.5,0.1-3.7,0.1c0.3,0.7,0.5,1.4,0.8,2.1c0.4,0.9,0.7,1.9,1.1,2.8
		c0.4,0.9,0.7,1.7,1.1,2.6c1-1.8,1.7-3.7,2.4-5.6c2.7-0.3,5.3-1,7.8-2c2.4-1.1,4.7-2.6,6.6-4.5c3.8-3.7,6.4-8.6,7.7-13.8
		C679,342.3,678.7,335.8,677.5,329.6z M778.2,305.6c0.4-0.2,0.8-0.3,1.3-0.5c0-0.1,0-0.3,0-0.4C779,305,778.6,305.3,778.2,305.6z"/>
	<path class="st1" d="M653.8,366.7c-1.2,0.1-2.5,0.1-3.7,0.1c-3-8.4-5.2-17.3-6.2-26.5c1.1,0.3,2.1,0.7,3.1,1.2
		c4.9,2.6,7.1,8,7.8,13.3C655.2,358.8,654.9,362.9,653.8,366.7z"/>
	<path class="st1" d="M706.5,420.7l-4.1,8.4c-7.6-4.3-14.6-9.4-21-15.3C690.5,416.6,699.7,419.2,706.5,420.7z"/>
	<path class="st1" d="M878.4,326.8c0,58.4-42.6,106.9-98.5,116.1l-1.8-30.5c6.4-5.6,34.8-50,35.3-62.4c8.4-12.8,39.7-61.5,40.3-78.9
		c0.7-20.2-43.1-17.4-54.9-18.1c-1.5-0.1-2.6,0.1-3.6,0.6c-1.4-0.9-3.4-2.2-5.6-3.4c-1.7-1.6-3.5-3-5.5-4.3c0.7-1.6,1.1-3.3,1.1-5.1
		c0-2.1-0.5-4-1.4-5.7c0.7,0.1,1.5,0.1,2.3,0.2c5.3,0.3,9.6,4.3,12.6,8.2c6.4,8.4,19.7,6,22.9-4.1c0.1-0.2,0.1-0.3,0.2-0.5
		c1.4-4.5,4.1-6.8,7.3-7.8C859,252.5,878.4,287.4,878.4,326.8z"/>
	<path class="st1" d="M800.3,319.1l-15.3-2.1l-3.5-5.6l-1.7,0.3c-0.2-2.3-0.4-4.7-0.3-6.7c12-5,20.5-16.9,20.5-30.8
		c0-1.3-0.1-2.7-0.2-4c15-0.8,26.3,13.3,26.3,13.3C826.7,290.6,800.3,319.1,800.3,319.1z"/>
	<path class="st1" d="M809.8,219.9c-4.5,2.3-9.7,2.4-14.5,0.7c-12.2-4.5-17.8,3.2-20,8.1c-0.8-0.2-1.7-0.3-2.5-0.3
		c-6.9,0-12.5,5.6-12.5,12.5c0,0.2,0,0.4,0,0.6c-15.5,2.9-27.1,16.5-27.1,32.8c0,12.3,6.7,23.1,16.6,28.8c0,0,0,0,0,0
		c2.1,2,4.7,3.7,7.5,4.7l1.4,7.4l-2.2,0.4v11.1c0,0-20.7,6.7-23.4,10.4c-3,0.2-8.9,1.8-11.4,10.4c-3.5,11.8-15.3,50.1-15.3,50.1
		s-27.3-0.4-43.8-6c-3.6-5.5-6.8-11.3-9.5-17.4c1-1.8,1.7-3.7,2.4-5.6c2.7-0.3,5.3-1,7.8-2c2.4-1.1,4.7-2.6,6.6-4.5
		c3.8-3.7,6.4-8.6,7.7-13.8c1.5-6.2,1.2-12.7,0-18.8c-0.6-3.2-1.5-6.4-2.5-9.5c-0.4-1.3-2.5-0.7-2.1,0.6c3.7,11.7,5.7,25.2-1.4,36
		c-2.9,4.6-7.5,7.9-12.8,9.2c-0.9,0.2-1.8,0.4-2.7,0.5c0.4-1.4,0.6-2.8,0.8-4.3c0.6-5.3,0-10.9-2.4-15.7c-1.3-2.6-3.2-4.8-5.6-6.3
		c-1.6-1-3.4-1.6-5.2-2c-0.4-3.7-0.5-7.5-0.5-11.3v0c0-65,52.7-117.7,117.7-117.7C777.8,209.1,794.5,212.8,809.8,219.9z"/>
	<path class="st2" d="M778.2,305.6c0.4-0.3,0.9-0.6,1.3-0.9c0,0.1,0,0.3,0,0.4C779,305.2,778.6,305.4,778.2,305.6z"/>
	<path class="st2" d="M789.7,250.3c-2-1.1-4.1-2.1-6.2-2.8c0.3-0.5,0.6-1,0.8-1.5C786.2,247.2,788,248.6,789.7,250.3z"/>
	<path class="st3" d="M779.4,304.7c-0.4,0.3-0.8,0.6-1.3,0.9c0.4-0.2,0.8-0.3,1.3-0.5c-0.1,2,0.1,4.4,0.3,6.7l-21.2,3.5l-1.4-7.4
		c-2.8-1.1-5.3-2.7-7.5-4.7c0,0,0,0,0,0c-4.4-4.2-7.2-10.1-7.2-16.7c0-5.2,1.8-10.1,4.7-13.9c3,4.2,8.2,7.9,14.6,10
		c10.6,3.6,21.1,1.8,25.2-4c0.9,2.5,1.4,5.1,1.4,7.9C788.4,293.9,784.9,300.5,779.4,304.7z"/>
	<path class="st4" d="M779.4,304.7c0,0.1,0,0.3,0,0.4c-0.4,0.2-0.8,0.3-1.3,0.5C778.6,305.3,779,305,779.4,304.7z"/>
	<path class="st3" d="M652,389.2l-3.1,10.1c-4.8-1-15.2-3.6-19.4-8.2c4.1-0.2,8.2-1.7,11.7-3.9c1-0.6,1.9-1.2,2.7-1.9
		C647.3,386.7,650.3,388.3,652,389.2z"/>
	<path class="st4" d="M643.9,385.3c-0.9,0.7-1.8,1.3-2.7,1.9c-3.5,2.2-7.5,3.7-11.7,3.9c-0.6-0.7-1.1-1.4-1.4-2.1
		c1.7,0,3.4-0.2,4.9-0.5c3.1-0.7,6-2.2,8.6-4.1C642.4,384.7,643.2,385,643.9,385.3z"/>
	<path class="st3" d="M793.2,266.7c-4.7-1.6-15-8.1-19-13.4c-1.8-2.4-2.3-4.5-0.4-5.8c2.4-1.7,6-1.3,9.6,0c2.1,0.7,4.3,1.7,6.2,2.8
		c1.5,1.4,2.8,3,4,4.6C791.5,257.6,792.2,262.9,793.2,266.7z"/>
	<path class="st4" d="M795.3,253.6c-0.7,0.3-1.2,0.7-1.6,1.3c-1.2-1.7-2.5-3.2-4-4.6C791.9,251.5,793.9,252.7,795.3,253.6z"/>
	<path class="st5" d="M853.8,271.1c-0.6,17.4-31.9,66.1-40.3,78.9c-0.5,12.4-28.9,56.7-35.3,62.4l-0.1-2.2l-48.1-14.5l-9.6-2.9
		l-0.6,1.2l-13.2,26.7c-6.9-1.5-16.1-4.1-25.1-6.9c-17-5.3-33.5-11.2-33.5-11.2l1-3.3l3.1-10.1l0.8-2.6c2.2,2.1,5.6,3.7,9.7,5.1
		c16.5,5.6,43.8,6,43.8,6s11.8-38.2,15.3-50.1c2.5-8.6,8.4-10.2,11.4-10.4c2.6-3.7,23.4-10.4,23.4-10.4v-11.1l2.2-0.4l21.2-3.5
		l1.7-0.3l3.5,5.6l15.3,2.1c0,0,26.4-28.5,25.7-35.5c0,0-11.3-14.2-26.3-13.3c-1.6,0.1-3.3,0.3-5,0.8c0,0-0.8-1.9-1.4-4.5
		c-1-3.8-1.8-9,0.5-11.8c0.4-0.5,0.9-0.9,1.6-1.3c0.9-0.4,2.1-0.7,3.6-0.6C810.7,253.8,854.5,251,853.8,271.1z"/>
	<path class="st2" d="M780,442.9c-6.4,1-12.8,1.6-19.2,1.6h-0.2c-0.5,0-1.1,0-1.6,0c-0.5,0-0.9,0-1.4,0c-0.3,0-0.7,0-1,0
		c-1.9-0.1-3.7-0.2-5.5-0.3c-0.3,0-0.7-0.1-1-0.1c-0.4,0-0.9-0.1-1.3-0.1c-2-0.2-3.9-0.5-5.9-0.7c-0.5-0.1-1-0.2-1.5-0.2
		c-0.4-0.1-0.7-0.1-1.1-0.2c-0.2,0-0.3-0.1-0.5-0.1c-0.3-0.1-0.6-0.1-0.9-0.2c-0.2,0-0.5-0.1-0.7-0.1c-0.2,0-0.3-0.1-0.5-0.1
		c-0.2,0-0.4-0.1-0.7-0.1c-0.3-0.1-0.6-0.1-0.9-0.2c-0.6-0.1-1.2-0.3-1.9-0.4c-0.3-0.1-0.6-0.1-0.9-0.2c-0.3-0.1-0.7-0.2-1-0.2
		c-1-0.2-2-0.5-3-0.8c-0.3-0.1-0.7-0.2-1-0.3c-0.6-0.2-1.1-0.3-1.7-0.5c-0.6-0.2-1.1-0.3-1.7-0.5c-2.2-0.7-4.4-1.5-6.6-2.3
		c-0.7-0.3-1.5-0.6-2.2-0.9c-0.4-0.2-0.7-0.3-1.1-0.5c-0.2-0.1-0.4-0.1-0.5-0.2c-0.9-0.4-1.8-0.8-2.6-1.2c-0.7-0.3-1.4-0.6-2.1-1
		c-0.3-0.2-0.7-0.3-1-0.5c-0.3-0.2-0.7-0.3-1-0.5c-0.3-0.2-0.7-0.3-1-0.5c-0.3-0.2-0.7-0.4-1-0.5c-0.3-0.2-0.7-0.4-1-0.5
		c-0.3-0.2-0.7-0.4-1-0.6c-0.4-0.2-0.8-0.4-1.2-0.6l4.1-8.4l13.2-26.7l0.6-1.2l9.6,2.9l48.1,14.5l0.1,2.2L780,442.9z"/>
	<path class="st2" d="M709.7,432.9c0.7,0.3,1.4,0.7,2.1,1C711,433.5,710.4,433.2,709.7,432.9z"/>
	<path class="st2" d="M714.9,435.2c0.4,0.2,0.7,0.3,1.1,0.5c-0.6-0.2-1.1-0.5-1.7-0.7C714.5,435.1,714.7,435.2,714.9,435.2z"/>
	<path class="st2" d="M742.8,443.1c1.9,0.3,3.9,0.5,5.9,0.7C746.7,443.7,744.7,443.4,742.8,443.1z"/>
	<path class="st2" d="M756.5,444.4c-1.8-0.1-3.7-0.2-5.5-0.3C752.8,444.3,754.7,444.4,756.5,444.4z"/>
	<path class="st2" d="M852.6,209.5l-10.2,3.2l9.1,7.8l-1.5,15.1c0,0-12.3-7-20.9-4.4c-3.2,1-5.9,3.3-7.3,7.8c0,0.2-0.1,0.3-0.2,0.5
		c-3.3,10.1-16.5,12.5-22.9,4.1c-3-3.9-7.3-7.9-12.6-8.2c-0.8,0-1.6-0.1-2.3-0.2c0.9,1.7,1.4,3.7,1.4,5.7c0,1.8-0.4,3.5-1.1,5.1
		c-0.2,0.5-0.5,1-0.8,1.5c-3.6-1.2-7.2-1.6-9.6,0c-1.9,1.3-1.4,3.4,0.4,5.8c4,5.3,14.3,11.8,19,13.4c0.7,2.6,1.4,4.5,1.4,4.5
		c1.7-0.5,3.4-0.7,5-0.8c0.2,1.3,0.2,2.6,0.2,4c0,13.9-8.4,25.7-20.5,30.8c0-0.1,0-0.3,0-0.4c5.5-4.2,9-10.8,9-18.2
		c0-2.8-0.5-5.5-1.4-7.9c-4.1,5.8-14.6,7.6-25.2,4c-6.4-2.2-11.5-5.9-14.6-10c-3,3.9-4.7,8.7-4.7,13.9c0,6.6,2.8,12.5,7.2,16.7
		c-9.9-5.8-16.6-16.5-16.6-28.8c0-16.3,11.7-29.9,27.1-32.8c0-0.2,0-0.4,0-0.6c0-6.9,5.6-12.5,12.5-12.5c0.9,0,1.7,0.1,2.5,0.3
		c2.2-4.9,7.8-12.5,20-8.1c4.8,1.7,10,1.6,14.5-0.7c0.4-0.2,0.8-0.4,1.2-0.6c3.4-2.1,6.9-5.6,9.7-11.5c7.9-16.6,32.8-7.2,32.8-7.2
		L852.6,209.5z"/>
	<path class="st6" d="M677.5,329.6c-0.6-3.2-1.5-6.4-2.5-9.5c-0.4-1.3-2.5-0.7-2.1,0.6c3.7,11.7,5.7,25.2-1.4,36
		c-2.9,4.6-7.5,7.9-12.8,9.2c-0.9,0.2-1.8,0.4-2.7,0.5c0.4-1.4,0.6-2.8,0.8-4.3c0.6-5.3,0-10.9-2.4-15.7c-1.3-2.6-3.2-4.8-5.6-6.3
		c-1.6-1-3.4-1.6-5.2-2c-0.9-0.2-1.9-0.4-2.9-0.4c-6.4-0.6-12.5,1.6-18.6,3.3c-3.1,0.9-6.3,1.5-9.5,1.8c-3.1,0.3-6.3,0.2-9.4-0.2
		c-3.1-0.4-6.1-1-9.1-2c-2.9-0.9-5.7-2.1-8.2-3.7c-2.3-1.5-4.2-3.5-4.4-6.4c-0.1-3.1,1.4-6,2.9-8.6c2.9-5.1,6.5-10.2,7.3-16.2
		c0-0.4,0.1-0.7,0.1-1.1c0.3-4.9-1.8-9.6-5.2-13.1c-3.7-3.8-8.8-6-14.2-5.9c-5.4,0.2-10.6,2.5-14.6,6.1c-1,0.9-1.9,1.9-2.8,3
		c-0.8,1-1.5,2.1-2.2,3.3c-0.7,1.2,1.2,2.3,1.8,1.1c0.6-1.1,1.3-2.2,2.2-3.2c5.6-6.9,15.5-10.6,23.7-6.2c4.3,2.3,7.7,6.3,8.7,11.1
		c0.3,1.3,0.4,2.6,0.3,3.9c-0.3,4.1-2.3,8-4.4,11.6c-1.5,2.5-3.1,5-4.3,7.6c-1.3,2.8-2.2,5.9-1.2,8.9c0.9,2.7,3,4.7,5.4,6.1
		c2.6,1.5,5.4,2.8,8.2,3.7c5.9,2,12.1,2.8,18.4,2.4c3.1-0.2,6.2-0.7,9.1-1.5c3.2-0.8,6.3-1.8,9.5-2.6c4.3-1.1,9.1-1.7,13.4-0.5
		c1.1,0.3,2.1,0.7,3.1,1.2c4.9,2.6,7.1,8,7.8,13.3c0.5,4,0.2,8-0.9,11.9c-1.2,0.1-2.5,0.1-3.7,0.1c-3.4,0-6.8-0.3-10.1-0.4
		c-5.9-0.2-12.5,0-17.6,3.5c-4.2,2.8-7.1,8.2-5.8,13.4c1.2,4.9,5.9,7.4,10.7,7.8c0.8,0.1,1.6,0.1,2.3,0c4.1-0.2,8.2-1.7,11.7-3.9
		c1-0.6,1.9-1.2,2.7-1.9c3.8-3,6.9-6.7,9.1-11c1-1.8,1.7-3.7,2.4-5.6c2.7-0.3,5.3-1,7.8-2c2.4-1.1,4.7-2.6,6.6-4.5
		c3.8-3.7,6.4-8.6,7.7-13.8C679,342.3,678.7,335.8,677.5,329.6z M651.9,371.8c-1.7,3.6-4,6.9-6.8,9.7c-1.1,1.1-2.3,2.1-3.5,3
		c-2.6,1.9-5.5,3.4-8.6,4.1c-1.5,0.4-3.2,0.6-4.9,0.5c-2.7-0.1-5.4-0.8-7.4-2.6c-3.5-3.3-2.7-8.7,0.1-12.2c3.6-4.5,9.7-5.6,15.1-5.7
		c5-0.1,9.9,0.5,14.9,0.4c0.8,0,1.5,0,2.3-0.1C652.8,369.9,652.4,370.8,651.9,371.8z"/>
	<path class="st3" d="M641.6,384.4c-2.6,1.9-5.5,3.4-8.6,4.1c-1.5,0.4-3.2,0.6-4.9,0.5c-0.4-1-0.6-2-0.3-3.2
		C628.8,381,635.4,382.1,641.6,384.4z"/>
	<path class="st6" d="M571.8,193c-2.8-4.6-7.9-7.4-13.3-7.4c-8.6,0-15.6,7-15.6,15.6c0,5.4,2.8,10.4,7.4,13.3c0,0,0.1,0.1,0.1,0.1
		c1.5-4.5,6.4-6.9,10.9-5.3c2.5,0.9,4.5,2.8,5.3,5.3c0,0,0.1-0.1,0.1-0.1C574.1,210,576.4,200.3,571.8,193z M562.5,205.7
		c-1,1-2.4,1.6-3.9,1.6c-3.1,0-5.5-2.5-5.5-5.5c0-3.1,2.5-5.5,5.5-5.5s5.5,2.5,5.5,5.5C564.1,203.3,563.5,204.7,562.5,205.7z"/>
	<path class="st1" d="M564.1,201.7c0,1.5-0.6,2.9-1.6,3.9c-1,1-2.4,1.6-3.9,1.6c-3.1,0-5.5-2.5-5.5-5.5c0-3.1,2.5-5.5,5.5-5.5
		S564.1,198.7,564.1,201.7z"/>
	<circle class="st6" cx="531.8" cy="229.1" r="2.9"/>
	<circle class="st6" cx="531.8" cy="242" r="2.9"/>
	<circle class="st6" cx="531.8" cy="254.8" r="2.9"/>
	<circle class="st6" cx="531.8" cy="267.6" r="2.9"/>
	<path class="st6" d="M577.5,254.8c0,0.8-0.3,1.5-0.8,2c-0.5,0.5-1.2,0.8-2,0.8h-32.1c-1.6,0-2.9-1.3-2.9-2.9c0-0.8,0.3-1.5,0.8-2
		c0.5-0.5,1.2-0.8,2-0.8h32.1C576.2,251.9,577.5,253.2,577.5,254.8z"/>
	<path class="st6" d="M577.5,267.6c0,0.8-0.3,1.5-0.8,2c-0.5,0.5-1.2,0.8-2,0.8h-32.1c-1.6,0-2.9-1.3-2.9-2.9c0-0.8,0.3-1.5,0.8-2
		c0.5-0.5,1.2-0.8,2-0.8h32.1C576.2,264.8,577.5,266.1,577.5,267.6z"/>
	<path class="st6" d="M577.5,242c0,0.8-0.3,1.5-0.8,2c-0.5,0.5-1.2,0.8-2,0.8h-32.1c-1.6,0-2.9-1.3-2.9-2.9c0-0.8,0.3-1.5,0.8-2
		c0.5-0.5,1.2-0.8,2-0.8h32.1C576.2,239.1,577.5,240.4,577.5,242z"/>
	<path class="st6" d="M577.5,229.1c0,0.8-0.3,1.5-0.8,2c-0.5,0.5-1.2,0.8-2,0.8h-32.1c-1.6,0-2.9-1.3-2.9-2.9c0-0.8,0.3-1.5,0.8-2
		c0.5-0.5,1.2-0.8,2-0.8h32.1C576.2,226.3,577.5,227.6,577.5,229.1z"/>
</g>
<rect x="1" class="st7" width="1366" height="618"/>
</svg>
